<svg width="2328" height="1401" viewBox="0 0 2328 1401" fill="none" xmlns="http://www.w3.org/2000/svg">
<path d="M2303 563C2416 512.5 2205 -71.5 107.5 8.50002C-165.5 8.5 171.5 564.1 171.5 840.5C171.5 1116.9 437.5 1221.67 570.5 1239.5C1069.83 1373 1992 1548 1686 1180C1303.5 720 2190 613.5 2303 563Z" fill="url(#paint0_linear_2_3)" stroke="#E6E6E6"/>
<path d="M368.754 1000.28L362.709 1031.01C362.253 1033.36 361.777 1035.75 361.26 1038.12C356.207 1037.06 350.969 1037.36 346.064 1038.98C349.955 1044.62 353.442 1050.53 356.498 1056.67C352.689 1068.56 347.099 1079.55 337.742 1087.5C331.492 1092.7 324.028 1096.17 316.069 1097.59C308.109 1099.01 299.923 1098.32 292.301 1095.6L292.57 1094.39C282.509 1074.6 287.974 1049.66 300.478 1031.39C306.856 1022.38 314.412 1014.28 322.94 1007.33C331.386 1000.2 340.516 993.797 349.563 987.483C351.595 986.067 353.997 985.297 356.463 985.271C358.929 985.246 361.346 985.966 363.406 987.339C365.466 988.713 367.076 990.678 368.028 992.983C368.981 995.288 369.233 997.828 368.754 1000.28Z" fill="#00BFA5"/>
<path d="M294.453 1169.55C291.909 1150.77 289.292 1131.75 291.077 1112.76C292.663 1095.91 297.737 1079.44 308.071 1065.94C313.557 1058.79 320.231 1052.66 327.794 1047.83C329.767 1046.57 331.581 1049.74 329.618 1050.99C316.532 1059.37 306.41 1071.75 300.712 1086.33C294.418 1102.55 293.408 1120.23 294.501 1137.46C295.157 1147.88 296.546 1158.23 297.948 1168.57C298.061 1169.04 297.993 1169.54 297.758 1169.95C297.523 1170.37 297.14 1170.68 296.685 1170.83C296.223 1170.95 295.73 1170.89 295.314 1170.65C294.898 1170.41 294.591 1170.01 294.462 1169.55L294.453 1169.55Z" fill="#00A38B"/>
<path d="M316.289 227.512C404.971 225.95 493.664 225.725 582.366 226.839C671.054 227.959 759.714 230.423 848.343 234.232C898.077 236.369 947.79 238.929 997.484 241.913C1001.48 242.152 1001.46 235.858 997.484 235.619C908.942 230.31 820.337 226.338 731.666 223.702C643.008 221.073 554.325 219.788 465.616 219.848C415.837 219.881 366.062 220.338 316.289 221.219C312.297 221.289 312.284 227.583 316.289 227.512Z" fill="#E6E6E6"/>
<path d="M934.324 188.051L973.102 185.127C977.063 184.828 977.096 178.532 973.102 178.833L934.324 181.758C930.362 182.057 930.33 188.353 934.324 188.051Z" fill="#E6E6E6"/>
<path d="M934.324 225.811L973.102 222.887C977.063 222.588 977.096 216.292 973.102 216.593L934.324 219.518C930.362 219.817 930.33 226.113 934.324 225.811Z" fill="#E6E6E6"/>
<path d="M931.407 208.567L986.541 213.643C990.52 214.009 990.495 207.713 986.541 207.349L931.407 202.274C927.428 201.908 927.452 208.203 931.407 208.567Z" fill="#E6E6E6"/>
<path d="M339.238 179.588C336.542 179.571 333.9 180.359 331.642 181.853C329.384 183.347 327.61 185.482 326.541 187.99C325.346 190.446 324.977 193.231 325.491 195.919C326.005 198.607 327.373 201.051 329.387 202.876C331.281 204.508 333.551 205.627 335.988 206.129C338.424 206.63 340.945 206.498 343.317 205.744C345.743 204.885 347.846 203.286 349.338 201.166C350.83 199.046 351.636 196.51 351.647 193.907C351.755 191.018 350.983 188.166 349.435 185.738C347.887 183.31 345.639 181.424 342.996 180.336C342.202 180.117 341.355 180.226 340.639 180.637C339.924 181.049 339.398 181.731 339.176 182.534C338.98 183.338 339.096 184.187 339.499 184.907C339.903 185.627 340.563 186.163 341.345 186.405C341.886 186.616 340.851 186.135 341.356 186.414C341.564 186.529 341.775 186.632 341.979 186.755C342.153 186.859 342.319 186.973 342.488 187.084C343.067 187.468 342.205 186.803 342.575 187.148C342.897 187.446 343.215 187.738 343.507 188.068C343.617 188.193 344.05 188.539 343.714 188.297C343.457 188.111 343.615 188.155 343.714 188.304C343.789 188.417 343.868 188.527 343.943 188.641C344.185 189.012 344.405 189.397 344.602 189.795C344.647 189.887 344.689 189.981 344.736 190.073C344.823 190.244 344.949 190.289 344.744 190.074C344.549 189.869 344.673 189.883 344.743 190.081C344.789 190.211 344.839 190.339 344.884 190.469C345.03 190.894 345.152 191.326 345.25 191.764C345.296 191.967 345.332 192.171 345.371 192.374C345.51 193.097 345.351 191.925 345.385 192.462C345.413 192.91 345.445 193.353 345.437 193.803C345.434 194.009 345.425 194.215 345.411 194.42C345.404 194.523 345.393 194.625 345.386 194.727C345.354 195.221 345.353 194.547 345.421 194.501C345.279 194.92 345.185 195.354 345.14 195.795C345.085 195.991 345.019 196.182 344.957 196.376C344.741 197.051 345.16 196.008 344.929 196.469C344.74 196.866 344.528 197.251 344.295 197.622C344.194 197.778 343.812 198.13 344.124 197.885C344.463 197.619 343.947 198.077 343.836 198.194C343.695 198.346 343.548 198.491 343.396 198.632C343.299 198.729 343.196 198.819 343.088 198.903C343.068 198.893 343.607 198.539 343.317 198.727C342.948 198.965 342.598 199.22 342.209 199.428C342.164 199.452 341.667 199.685 341.669 199.694C341.648 199.609 342.308 199.458 341.855 199.606C341.76 199.637 341.666 199.675 341.571 199.708C341.158 199.848 340.737 199.962 340.31 200.048C340.212 200.068 340.109 200.078 340.012 200.103C339.691 200.187 340.319 200.054 340.338 200.065C340.101 200.054 339.863 200.076 339.631 200.128C339.191 200.154 338.749 200.154 338.308 200.128C338.206 200.122 338.105 200.112 338.003 200.106C337.766 200.092 337.592 199.919 337.907 200.107C338.15 200.251 338.13 200.146 337.915 200.105C337.814 200.087 337.713 200.071 337.612 200.052C337.176 199.969 336.745 199.862 336.321 199.731C336.092 199.66 335.868 199.578 335.643 199.499C335.545 199.47 335.449 199.432 335.357 199.387C335.356 199.361 335.938 199.669 335.631 199.501C335.243 199.289 334.842 199.112 334.463 198.88C334.261 198.757 334.067 198.622 333.87 198.49C333.784 198.437 333.702 198.378 333.624 198.312C333.631 198.285 334.106 198.731 333.857 198.49C333.541 198.186 333.204 197.913 332.905 197.589C332.837 197.515 332.772 197.437 332.704 197.363L332.638 197.287C332.47 197.078 332.467 197.079 332.629 197.29C332.794 197.339 332.786 197.522 332.63 197.284C332.574 197.199 332.515 197.117 332.46 197.032C332.207 196.668 331.992 196.279 331.818 195.871C331.833 195.859 332.087 196.628 331.893 196.048C331.856 195.938 331.815 195.83 331.779 195.72C331.707 195.502 331.645 195.282 331.59 195.059C331.537 194.838 331.509 194.61 331.455 194.391C331.364 194.02 331.508 194.683 331.492 194.666C331.44 194.615 331.462 194.293 331.458 194.216C331.433 193.723 331.489 193.243 331.498 192.753C331.504 192.372 331.467 193.049 331.459 193.029C331.461 192.915 331.481 192.802 331.518 192.695C331.574 192.436 331.626 192.177 331.695 191.921C331.774 191.628 331.865 191.339 331.967 191.053C332.006 190.946 332.052 190.841 332.088 190.733C332.219 190.338 331.829 191.21 332.044 190.854C332.339 190.363 332.559 189.833 332.873 189.349C332.947 189.234 333.399 188.595 333.159 188.917C332.921 189.239 333.405 188.63 333.497 188.526C333.878 188.096 334.326 187.743 334.72 187.332C334.953 187.088 334.557 187.452 334.534 187.469C334.656 187.38 334.775 187.289 334.899 187.202C335.115 187.052 335.335 186.909 335.562 186.775C335.816 186.624 336.104 186.511 336.351 186.351C336.643 186.162 336.128 186.434 336.119 186.44C336.252 186.373 336.392 186.319 336.535 186.279C336.775 186.193 337.821 185.735 338.041 185.878C338.031 185.872 337.247 185.942 337.88 185.901C338.03 185.891 338.179 185.877 338.33 185.87C338.633 185.858 338.935 185.865 339.239 185.881C340.06 185.876 340.847 185.542 341.428 184.953C342.01 184.365 342.338 183.567 342.344 182.734C342.326 181.906 341.993 181.115 341.415 180.529C340.836 179.943 340.056 179.606 339.238 179.588Z" fill="#FF5252"/>
<path d="M382.713 179.588C380.016 179.571 377.374 180.359 375.117 181.853C372.859 183.347 371.085 185.482 370.016 187.99C368.82 190.446 368.451 193.231 368.965 195.919C369.479 198.607 370.848 201.051 372.862 202.876C374.755 204.508 377.026 205.627 379.462 206.129C381.898 206.63 384.42 206.498 386.792 205.744C389.218 204.885 391.321 203.286 392.813 201.166C394.304 199.046 395.111 196.51 395.121 193.907C395.229 191.018 394.457 188.166 392.91 185.738C391.362 183.31 389.114 181.424 386.471 180.336C385.677 180.117 384.829 180.226 384.114 180.637C383.398 181.049 382.872 181.731 382.651 182.534C382.455 183.338 382.571 184.187 382.974 184.907C383.377 185.627 384.038 186.163 384.82 186.405C385.361 186.616 384.325 186.135 384.831 186.414C385.038 186.529 385.25 186.632 385.454 186.755C385.627 186.859 385.794 186.973 385.962 187.084C386.542 187.468 385.679 186.803 386.05 187.148C386.371 187.446 386.689 187.738 386.982 188.068C387.092 188.193 387.525 188.539 387.188 188.297C386.931 188.111 387.089 188.155 387.188 188.304C387.264 188.417 387.343 188.527 387.417 188.641C387.659 189.012 387.88 189.397 388.076 189.795C388.122 189.887 388.164 189.981 388.21 190.073C388.297 190.244 388.423 190.289 388.219 190.074C388.023 189.869 388.148 189.883 388.218 190.081C388.264 190.211 388.314 190.339 388.359 190.469C388.504 190.894 388.626 191.326 388.725 191.764C388.77 191.967 388.807 192.171 388.846 192.374C388.985 193.097 388.826 191.925 388.859 192.462C388.887 192.91 388.92 193.353 388.912 193.803C388.909 194.009 388.9 194.215 388.886 194.42C388.878 194.523 388.867 194.625 388.861 194.727C388.828 195.221 388.827 194.547 388.895 194.501C388.754 194.92 388.659 195.354 388.615 195.795C388.559 195.991 388.493 196.182 388.431 196.376C388.215 197.051 388.634 196.008 388.404 196.469C388.214 196.866 388.003 197.251 387.769 197.622C387.668 197.778 387.287 198.13 387.599 197.885C387.937 197.619 387.421 198.077 387.311 198.194C387.17 198.346 387.023 198.491 386.871 198.632C386.773 198.729 386.67 198.819 386.563 198.903C386.543 198.893 387.082 198.539 386.791 198.727C386.422 198.965 386.073 199.22 385.684 199.428C385.639 199.452 385.142 199.685 385.144 199.694C385.122 199.609 385.783 199.458 385.329 199.606C385.234 199.637 385.141 199.675 385.046 199.708C384.633 199.848 384.212 199.962 383.784 200.048C383.687 200.068 383.583 200.078 383.487 200.103C383.166 200.187 383.794 200.054 383.812 200.065C383.575 200.054 383.338 200.076 383.106 200.128C382.665 200.154 382.223 200.154 381.783 200.128C381.681 200.122 381.579 200.112 381.477 200.106C381.241 200.092 381.067 199.919 381.382 200.107C381.625 200.251 381.605 200.146 381.389 200.105C381.289 200.087 381.188 200.071 381.087 200.052C380.651 199.969 380.22 199.862 379.795 199.731C379.567 199.66 379.343 199.578 379.118 199.499C379.019 199.47 378.924 199.432 378.832 199.387C378.831 199.361 379.413 199.669 379.105 199.501C378.717 199.289 378.316 199.112 377.938 198.88C377.735 198.757 377.541 198.622 377.345 198.49C377.258 198.437 377.176 198.378 377.099 198.312C377.106 198.285 377.58 198.731 377.331 198.49C377.016 198.186 376.679 197.913 376.38 197.589C376.312 197.515 376.247 197.437 376.179 197.363L376.113 197.287C375.945 197.078 375.942 197.079 376.104 197.29C376.268 197.339 376.261 197.522 376.105 197.284C376.049 197.199 375.99 197.117 375.934 197.032C375.682 196.668 375.467 196.279 375.292 195.871C375.308 195.859 375.561 196.628 375.367 196.048C375.331 195.938 375.289 195.83 375.253 195.72C375.182 195.502 375.119 195.282 375.065 195.059C375.011 194.838 374.984 194.61 374.93 194.391C374.838 194.02 374.983 194.683 374.967 194.666C374.915 194.615 374.937 194.293 374.933 194.216C374.908 193.723 374.964 193.243 374.972 192.753C374.979 192.372 374.941 193.049 374.933 193.029C374.935 192.915 374.955 192.802 374.992 192.695C375.049 192.436 375.101 192.177 375.17 191.921C375.248 191.628 375.339 191.339 375.442 191.053C375.48 190.946 375.527 190.841 375.563 190.733C375.693 190.338 375.304 191.21 375.519 190.854C375.814 190.363 376.034 189.833 376.348 189.349C376.422 189.234 376.874 188.595 376.634 188.917C376.395 189.239 376.88 188.63 376.971 188.526C377.352 188.096 377.8 187.743 378.194 187.332C378.428 187.088 378.032 187.452 378.008 187.469C378.13 187.38 378.25 187.289 378.374 187.202C378.589 187.052 378.81 186.909 379.036 186.775C379.291 186.624 379.579 186.511 379.826 186.351C380.118 186.162 379.603 186.434 379.594 186.44C379.727 186.373 379.866 186.319 380.01 186.279C380.25 186.193 381.296 185.735 381.515 185.878C381.505 185.872 380.721 185.942 381.355 185.901C381.505 185.891 381.654 185.877 381.804 185.87C382.108 185.858 382.41 185.865 382.713 185.881C383.535 185.876 384.322 185.542 384.903 184.953C385.484 184.365 385.813 183.567 385.818 182.734C385.801 181.906 385.468 181.115 384.889 180.529C384.311 179.943 383.531 179.606 382.713 179.588Z" fill="#E6E6E6"/>
<path d="M426.188 179.588C423.491 179.571 420.849 180.359 418.591 181.853C416.333 183.347 414.56 185.482 413.491 187.99C412.295 190.446 411.926 193.231 412.44 195.919C412.954 198.607 414.323 201.051 416.337 202.876C418.23 204.508 420.501 205.627 422.937 206.129C425.373 206.63 427.895 206.498 430.267 205.744C432.692 204.885 434.796 203.286 436.287 201.166C437.779 199.046 438.586 196.51 438.596 193.907C438.704 191.018 437.932 188.166 436.384 185.738C434.836 183.31 432.588 181.424 429.945 180.336C429.151 180.117 428.304 180.226 427.589 180.637C426.873 181.049 426.347 181.731 426.125 182.534C425.93 183.338 426.045 184.187 426.449 184.907C426.852 185.627 427.513 186.163 428.294 186.405C428.836 186.616 427.8 186.135 428.305 186.414C428.513 186.529 428.725 186.632 428.929 186.755C429.102 186.859 429.268 186.973 429.437 187.084C430.017 187.468 429.154 186.803 429.525 187.148C429.846 187.446 430.164 187.738 430.456 188.068C430.567 188.193 430.999 188.539 430.663 188.297C430.406 188.111 430.564 188.155 430.663 188.304C430.738 188.417 430.818 188.527 430.892 188.641C431.134 189.012 431.354 189.397 431.551 189.795C431.597 189.887 431.639 189.981 431.685 190.073C431.772 190.244 431.898 190.289 431.694 190.074C431.498 189.869 431.623 189.883 431.692 190.081C431.738 190.211 431.789 190.339 431.833 190.469C431.979 190.894 432.101 191.326 432.199 191.764C432.245 191.967 432.281 192.171 432.321 192.374C432.459 193.097 432.3 191.925 432.334 192.462C432.362 192.91 432.395 193.353 432.387 193.803C432.383 194.009 432.374 194.215 432.36 194.42C432.353 194.523 432.342 194.625 432.335 194.727C432.303 195.221 432.302 194.547 432.37 194.501C432.228 194.92 432.134 195.354 432.09 195.795C432.034 195.991 431.968 196.182 431.906 196.376C431.69 197.051 432.109 196.008 431.879 196.469C431.689 196.866 431.477 197.251 431.244 197.622C431.143 197.778 430.761 198.13 431.073 197.885C431.412 197.619 430.896 198.077 430.786 198.194C430.644 198.346 430.498 198.491 430.345 198.632C430.248 198.729 430.145 198.819 430.037 198.903C430.018 198.893 430.556 198.539 430.266 198.727C429.897 198.965 429.548 199.22 429.159 199.428C429.114 199.452 428.616 199.685 428.618 199.694C428.597 199.609 429.258 199.458 428.804 199.606C428.709 199.637 428.615 199.675 428.521 199.708C428.108 199.848 427.686 199.962 427.259 200.048C427.161 200.068 427.058 200.078 426.962 200.103C426.641 200.187 427.268 200.054 427.287 200.065C427.05 200.054 426.812 200.076 426.58 200.128C426.14 200.154 425.698 200.154 425.258 200.128C425.156 200.122 425.054 200.112 424.952 200.106C424.715 200.092 424.542 199.919 424.857 200.107C425.1 200.251 425.079 200.146 424.864 200.105C424.763 200.087 424.662 200.071 424.562 200.052C424.126 199.969 423.694 199.862 423.27 199.731C423.042 199.66 422.818 199.578 422.592 199.499C422.494 199.47 422.399 199.432 422.307 199.387C422.305 199.361 422.887 199.669 422.58 199.501C422.192 199.289 421.791 199.112 421.412 198.88C421.21 198.757 421.016 198.622 420.82 198.49C420.733 198.437 420.651 198.378 420.574 198.312C420.58 198.285 421.055 198.731 420.806 198.49C420.491 198.186 420.153 197.913 419.855 197.589C419.786 197.515 419.722 197.437 419.654 197.363L419.588 197.287C419.419 197.078 419.416 197.079 419.578 197.29C419.743 197.339 419.736 197.522 419.579 197.284C419.524 197.199 419.465 197.117 419.409 197.032C419.157 196.668 418.942 196.279 418.767 195.871C418.782 195.859 419.036 196.628 418.842 196.048C418.805 195.938 418.764 195.83 418.728 195.72C418.657 195.502 418.594 195.282 418.54 195.059C418.486 194.838 418.459 194.61 418.404 194.391C418.313 194.02 418.458 194.683 418.441 194.666C418.389 194.615 418.411 194.293 418.408 194.216C418.383 193.723 418.438 193.243 418.447 192.753C418.454 192.372 418.416 193.049 418.408 193.029C418.41 192.915 418.43 192.802 418.467 192.695C418.523 192.436 418.576 192.177 418.644 191.921C418.723 191.628 418.814 191.339 418.917 191.053C418.955 190.946 419.002 190.841 419.037 190.733C419.168 190.338 418.779 191.21 418.993 190.854C419.289 190.363 419.509 189.833 419.822 189.349C419.897 189.234 420.349 188.595 420.109 188.917C419.87 189.239 420.354 188.63 420.446 188.526C420.827 188.096 421.275 187.743 421.669 187.332C421.903 187.088 421.506 187.452 421.483 187.469C421.605 187.38 421.725 187.289 421.848 187.202C422.064 187.052 422.285 186.909 422.511 186.775C422.766 186.624 423.054 186.511 423.301 186.351C423.592 186.162 423.078 186.434 423.068 186.44C423.202 186.373 423.341 186.319 423.484 186.279C423.725 186.193 424.771 185.735 424.99 185.878C424.98 185.872 424.196 185.942 424.83 185.901C424.98 185.891 425.129 185.877 425.279 185.87C425.582 185.858 425.885 185.865 426.188 185.881C427.01 185.876 427.797 185.542 428.378 184.953C428.959 184.365 429.288 183.567 429.293 182.734C429.276 181.906 428.943 181.115 428.364 180.529C427.786 179.943 427.006 179.606 426.188 179.588Z" fill="#E6E6E6"/>
<path d="M1054.24 876.495H292.592C282.961 876.484 273.728 872.602 266.917 865.701C260.107 858.801 256.276 849.444 256.265 839.685V151.811C256.276 142.051 260.107 132.695 266.917 125.794C273.728 118.893 282.961 115.011 292.592 115H1054.24C1063.87 115.011 1073.1 118.893 1079.91 125.794C1086.72 132.695 1090.55 142.051 1090.56 151.811V839.685C1090.55 849.444 1086.72 858.801 1079.91 865.701C1073.1 872.602 1063.87 876.484 1054.24 876.495ZM292.592 119.196C284.059 119.205 275.878 122.645 269.844 128.759C263.81 134.873 260.416 143.164 260.406 151.811V839.685C260.416 848.332 263.81 856.622 269.844 862.736C275.878 868.85 284.059 872.289 292.592 872.299H1054.24C1062.77 872.289 1070.95 868.85 1076.99 862.736C1083.02 856.622 1086.41 848.332 1086.42 839.685V151.811C1086.41 143.164 1083.02 134.873 1076.99 128.759C1070.95 122.645 1062.77 119.205 1054.24 119.196H292.592Z" fill="#E6E6E6"/>
<path d="M291.33 583.027L559.174 582.202L825.651 581.38L975.972 580.917C976.777 580.889 977.539 580.545 978.099 579.958C978.659 579.371 978.971 578.587 978.971 577.77C978.971 576.954 978.659 576.17 978.099 575.583C977.539 574.996 976.777 574.652 975.972 574.624L708.128 575.449L441.651 576.271L291.33 576.734C290.525 576.762 289.763 577.106 289.203 577.693C288.644 578.28 288.331 579.065 288.331 579.881C288.331 580.697 288.644 581.481 289.203 582.068C289.763 582.655 290.525 582.999 291.33 583.027Z" fill="#E6E6E6"/>
<path d="M426.453 577.925L428.109 478.832C428.177 474.781 421.967 474.78 421.899 478.832L420.243 577.925C420.175 581.977 426.386 581.977 426.453 577.925Z" fill="#E6E6E6"/>
<path d="M554.466 578.998L558.502 454.443L559.655 418.856C559.786 414.805 553.576 414.81 553.445 418.856L549.408 543.41L548.255 578.998C548.124 583.048 554.335 583.044 554.466 578.998Z" fill="#E6E6E6"/>
<path d="M682.133 359.814C679.699 403.93 675.194 534.055 672.76 578.172C672.536 582.218 678.748 582.205 678.97 578.172C681.405 534.055 685.91 403.93 688.344 359.814C688.567 355.767 682.356 355.78 682.133 359.814Z" fill="#E6E6E6"/>
<path d="M809.186 533.904L808.425 576.307C808.352 580.358 814.563 580.358 814.636 576.307C815.535 526.226 817.841 527.858 818.094 513.724C818.167 509.673 811.956 509.673 811.884 513.724C811.884 513.724 810.085 483.823 809.186 533.904Z" fill="#E6E6E6"/>
<path d="M933.631 422.511L934.334 541.473L934.535 575.537C934.563 576.353 934.902 577.126 935.481 577.693C936.061 578.26 936.835 578.577 937.64 578.577C938.446 578.577 939.22 578.26 939.799 577.693C940.378 577.126 940.718 576.353 940.746 575.537L940.043 456.575L939.842 422.511C939.814 421.695 939.475 420.922 938.895 420.355C938.316 419.788 937.542 419.471 936.737 419.471C935.931 419.471 935.157 419.788 934.578 420.355C933.999 420.922 933.659 421.695 933.631 422.511Z" fill="#E6E6E6"/>
<path d="M291.83 579.487C286.689 565.172 298.278 551.403 310.185 545.217C324.451 537.805 340.862 536.125 355.279 528.979C376.773 518.327 392.428 499.209 406.358 480.072C420.696 460.375 433.815 439.236 452.034 422.87C461.635 414.055 472.973 407.405 485.3 403.363C500.831 398.451 517.303 398.114 533.352 400.094C566.514 404.184 597.255 418.063 629.253 426.884C659.42 435.201 692.659 439.878 722.269 426.945C737.313 420.374 749.615 409.354 762.829 399.817C775.617 390.491 789.915 383.502 805.079 379.165C834.803 370.79 867.264 373.026 894.937 387.185C920.375 400.033 940.516 421.573 951.806 448.005C964.925 479.762 963.217 515.251 958.931 548.677C957.823 557.317 956.505 565.929 955.172 574.536C954.559 578.498 960.543 580.205 961.161 576.209C966.498 541.741 971.818 506.181 965.178 471.496C959.437 441.209 943.002 414.081 918.948 395.186C894.793 376.239 864.764 366.637 834.252 368.101C818.263 368.852 802.522 372.4 787.726 378.586C772.366 385.024 759.36 394.566 746.148 404.606C732.565 414.929 718.563 423.468 701.698 426.835C685.34 430.101 668.324 428.877 652.037 425.793C618.433 419.431 587.11 404.847 553.79 397.374C522.92 390.45 489.608 389.759 461.965 407.43C440.701 421.024 425.675 442.128 411.255 462.506C396.962 482.705 382.487 504.304 361.586 518.103C348.836 526.52 334.504 529.626 320.241 534.359C305.941 539.105 292.214 547.111 286.383 561.956C283.87 568.071 283.677 574.91 285.841 581.16C287.197 584.936 293.201 583.305 291.83 579.487Z" fill="#E6E6E6"/>
<path d="M424.393 465.13L424.385 465.134L424.402 465.13H424.393Z" fill="#E6E6E6"/>
<path d="M435.161 459.341C433.726 456.765 431.436 454.789 428.698 453.762C425.961 452.735 422.952 452.725 420.208 453.733C418.844 454.238 417.593 455.014 416.53 456.017C415.467 457.02 414.614 458.229 414.02 459.572C413.901 459.857 413.831 460.157 413.734 460.45C413.6 460.67 413.438 460.869 413.318 461.1C412.03 463.699 411.678 466.671 412.321 469.506C412.964 472.34 414.562 474.858 416.84 476.626C419.118 478.395 421.934 479.303 424.802 479.195C427.669 479.086 430.41 477.967 432.552 476.032C434.802 473.97 436.289 471.19 436.763 468.153C437.238 465.117 436.673 462.007 435.161 459.341ZM427.383 464.686C427.399 464.99 427.409 464.844 427.383 464.686V464.686ZM426.592 462.864C426.562 462.828 426.566 462.832 426.592 462.864V462.864ZM423.108 464.284C423.056 464.199 423.061 464.211 423.108 464.284V464.284ZM423.934 464.993C424.052 465.047 424.13 465.061 423.934 464.993V464.993ZM424.302 465.172L424.384 465.134C424.364 465.135 424.344 465.131 424.326 465.122L424.329 465.122L424.393 465.13L424.405 465.124L424.368 465.115C424.4 465.114 424.403 465.119 424.405 465.124C424.774 464.953 424.525 465.035 424.311 465.102L424.296 465.099C424.163 465.03 424.019 464.983 423.871 464.96C423.857 464.952 423.841 464.947 423.829 464.939C423.71 464.853 423.109 464.377 423.667 464.876C423.546 464.767 423.426 464.661 423.312 464.543C423.244 464.473 423.183 464.397 423.129 464.317C423.056 464.189 422.985 464.061 422.917 463.932L422.906 463.862C422.897 463.804 422.89 463.78 422.883 463.745C422.886 463.709 422.892 463.67 422.897 463.633C422.939 463.52 422.966 463.401 422.976 463.281L423 463.25C423.09 463.124 423.168 462.977 423.253 462.846C422.803 463.539 423.429 462.77 423.476 462.672C423.484 462.656 423.47 462.665 423.473 462.653C423.491 462.643 423.486 462.65 423.508 462.637C423.647 462.554 423.779 462.461 423.921 462.381C424.09 462.287 424.754 462.095 424.065 462.295C424.222 462.25 424.372 462.192 424.53 462.151C424.559 462.143 424.791 462.11 424.916 462.087C425.025 462.085 425.132 462.081 425.143 462.081C425.195 462.082 425.246 462.088 425.298 462.091C425.183 462.106 425.69 462.217 425.841 462.241C425.862 462.258 425.874 462.269 425.903 462.291C426.03 462.385 426.185 462.469 426.319 462.557C425.719 462.164 426.327 462.588 426.442 462.704C426.511 462.774 426.574 462.848 426.638 462.921C426.698 462.991 426.751 463.065 426.798 463.143C426.897 463.326 427.002 463.511 427.105 463.691L427.134 463.737C427.133 463.743 427.133 463.749 427.133 463.755C427.187 464.047 427.266 464.333 427.371 464.611C427.376 464.634 427.38 464.658 427.382 464.682C427.392 464.842 427.405 465.001 427.405 465.162L427.404 465.194C426.926 464.941 426.395 464.808 425.856 464.804C425.317 464.8 424.784 464.926 424.302 465.172Z" fill="#FF8C42"/>
<path d="M424.412 465.126C424.423 465.129 424.411 465.13 424.411 465.13L424.412 465.126Z" fill="#E6E6E6"/>
<path d="M424.411 465.129L424.401 465.131C424.414 465.132 424.411 465.129 424.411 465.129Z" fill="#E6E6E6"/>
<path d="M424.406 465.124L424.409 465.126L424.406 465.124Z" fill="#E6E6E6"/>
<path d="M556.887 406.392L556.879 406.396L556.896 406.392H556.887Z" fill="#E6E6E6"/>
<path d="M567.656 400.603C566.22 398.028 563.93 396.051 561.193 395.024C558.455 393.997 555.447 393.987 552.702 394.995C551.338 395.5 550.087 396.277 549.024 397.279C547.962 398.282 547.108 399.491 546.514 400.834C546.395 401.119 546.326 401.419 546.229 401.712C546.094 401.932 545.932 402.131 545.812 402.362C544.525 404.961 544.172 407.934 544.815 410.768C545.458 413.602 547.056 416.12 549.334 417.889C551.613 419.657 554.428 420.565 557.296 420.457C560.164 420.348 562.904 419.23 565.046 417.294C567.297 415.232 568.783 412.452 569.258 409.415C569.733 406.379 569.167 403.269 567.656 400.603ZM559.877 405.948C559.893 406.253 559.903 406.107 559.877 405.948V405.948ZM559.087 404.126C559.056 404.09 559.06 404.094 559.087 404.126V404.126ZM555.602 405.546C555.551 405.461 555.555 405.473 555.602 405.546V405.546ZM556.428 406.256C556.547 406.309 556.624 406.323 556.428 406.256V406.256ZM556.797 406.434L556.878 406.396C556.858 406.398 556.838 406.394 556.82 406.384L556.823 406.384L556.887 406.392L556.899 406.386L556.862 406.377C556.894 406.376 556.897 406.381 556.899 406.386C557.268 406.215 557.019 406.297 556.805 406.364L556.791 406.361C556.657 406.292 556.513 406.245 556.365 406.222C556.351 406.215 556.335 406.209 556.323 406.201C556.204 406.115 555.603 405.639 556.161 406.138C556.04 406.029 555.92 405.923 555.806 405.805C555.738 405.735 555.677 405.66 555.623 405.579C555.55 405.451 555.479 405.323 555.411 405.194L555.4 405.124C555.391 405.066 555.384 405.042 555.377 405.007C555.38 404.971 555.386 404.933 555.392 404.895C555.433 404.782 555.46 404.664 555.47 404.543L555.494 404.513C555.584 404.386 555.662 404.239 555.747 404.108C555.297 404.801 555.923 404.032 555.97 403.934C555.978 403.918 555.964 403.927 555.967 403.915C555.985 403.905 555.98 403.912 556.002 403.899C556.141 403.816 556.273 403.723 556.415 403.643C556.584 403.549 557.248 403.358 556.559 403.557C556.716 403.512 556.866 403.455 557.024 403.413C557.053 403.405 557.285 403.372 557.41 403.349C557.52 403.347 557.626 403.343 557.637 403.343C557.689 403.344 557.74 403.35 557.792 403.353C557.678 403.368 558.184 403.479 558.335 403.503C558.357 403.52 558.368 403.531 558.397 403.553C558.525 403.647 558.679 403.731 558.814 403.819C558.213 403.426 558.821 403.85 558.936 403.966C559.005 404.036 559.068 404.11 559.133 404.183C559.192 404.253 559.245 404.327 559.293 404.406C559.391 404.588 559.496 404.773 559.599 404.953L559.628 404.999C559.627 405.005 559.627 405.011 559.627 405.017C559.681 405.309 559.76 405.595 559.865 405.873C559.87 405.896 559.874 405.92 559.877 405.944C559.886 406.104 559.899 406.263 559.9 406.424L559.898 406.456C559.42 406.203 558.889 406.07 558.35 406.066C557.811 406.062 557.278 406.188 556.797 406.434Z" fill="#FF8C42"/>
<path d="M556.906 406.391L556.896 406.393C556.908 406.394 556.906 406.391 556.906 406.391Z" fill="#E6E6E6"/>
<path d="M556.9 406.386L556.904 406.388L556.9 406.386Z" fill="#E6E6E6"/>
<path d="M556.907 406.388C556.917 406.392 556.905 406.392 556.905 406.392L556.907 406.388Z" fill="#E6E6E6"/>
<path d="M685.254 435.755L685.257 435.757L685.254 435.755Z" fill="#E6E6E6"/>
<path d="M696.009 341.866C694.574 339.29 692.284 337.313 689.546 336.286C686.809 335.259 683.8 335.249 681.056 336.257C679.692 336.762 678.441 337.539 677.378 338.542C676.315 339.544 675.462 340.753 674.868 342.096C674.749 342.381 674.68 342.681 674.582 342.974C674.448 343.194 674.286 343.393 674.166 343.624C672.878 346.223 672.526 349.196 673.169 352.03C673.812 354.864 675.41 357.382 677.688 359.151C679.966 360.919 682.782 361.827 685.65 361.719C688.517 361.61 691.258 360.492 693.4 358.556C695.65 356.494 697.137 353.714 697.612 350.677C698.086 347.641 697.521 344.531 696.009 341.866ZM688.231 347.21C688.257 347.369 688.247 347.515 688.231 347.21ZM687.44 345.388C687.414 345.357 687.41 345.353 687.44 345.388ZM683.956 346.808C683.909 346.735 683.904 346.723 683.956 346.808ZM684.782 347.518C684.978 347.586 684.9 347.571 684.782 347.518ZM685.15 347.696L685.232 347.658C685.212 347.66 685.192 347.656 685.174 347.646L685.177 347.646L685.241 347.654L685.253 347.648L685.216 347.64C685.248 347.639 685.25 347.643 685.253 347.648C685.622 347.477 685.373 347.559 685.159 347.626L685.144 347.623C685.011 347.554 684.867 347.507 684.719 347.485C684.705 347.477 684.689 347.471 684.677 347.463C684.558 347.377 683.957 346.901 684.515 347.4C684.393 347.291 684.274 347.185 684.159 347.068C684.092 346.998 684.031 346.922 683.977 346.841C683.904 346.714 683.833 346.585 683.764 346.456L683.754 346.386C683.745 346.328 683.738 346.304 683.731 346.269C683.734 346.233 683.74 346.195 683.745 346.157C683.787 346.044 683.814 345.926 683.824 345.805L683.848 345.775C683.938 345.649 684.016 345.502 684.101 345.37C683.651 346.063 684.277 345.294 684.324 345.197C684.331 345.18 684.318 345.189 684.321 345.177C684.339 345.167 684.334 345.174 684.356 345.161C684.495 345.078 684.627 344.985 684.769 344.906C684.938 344.811 685.602 344.62 684.913 344.819C685.07 344.774 685.22 344.717 685.378 344.675C685.407 344.667 685.639 344.634 685.764 344.612C685.873 344.609 685.98 344.606 685.991 344.606C686.043 344.606 686.094 344.613 686.146 344.615C686.031 344.63 686.538 344.741 686.689 344.765C686.71 344.782 686.722 344.793 686.751 344.815C686.878 344.909 687.033 344.993 687.167 345.081C686.567 344.688 687.175 345.112 687.29 345.229C687.359 345.298 687.422 345.372 687.486 345.445C687.546 345.515 687.599 345.589 687.646 345.668C687.745 345.851 687.85 346.036 687.953 346.216L687.982 346.262C687.981 346.268 687.981 346.274 687.981 346.28C688.035 346.571 688.114 346.858 688.219 347.135C688.224 347.158 688.228 347.182 688.23 347.206C688.24 347.366 688.253 347.525 688.253 347.686L688.252 347.718C687.774 347.466 687.243 347.332 686.704 347.328C686.165 347.324 685.632 347.45 685.15 347.696Z" fill="#FF5252"/>
<path d="M685.241 435.761L685.233 435.765L685.25 435.761H685.241Z" fill="#E6E6E6"/>
<path d="M685.259 435.76L685.249 435.762C685.262 435.763 685.259 435.76 685.259 435.76Z" fill="#E6E6E6"/>
<path d="M685.261 435.757C685.271 435.76 685.259 435.761 685.259 435.761L685.261 435.757Z" fill="#E6E6E6"/>
<path d="M826.433 503.395C824.998 500.819 822.708 498.842 819.97 497.815C817.233 496.789 814.224 496.778 811.48 497.787C810.116 498.291 808.865 499.068 807.802 500.071C806.739 501.073 805.886 502.282 805.292 503.625C805.173 503.91 805.104 504.21 805.006 504.503C804.872 504.723 804.71 504.922 804.59 505.153C803.302 507.752 802.95 510.725 803.593 513.559C804.236 516.393 805.834 518.911 808.112 520.68C810.39 522.448 813.206 523.356 816.074 523.248C818.941 523.139 821.682 522.021 823.824 520.085C826.074 518.023 827.561 515.243 828.036 512.207C828.51 509.17 827.945 506.06 826.433 503.395ZM818.655 508.739C818.671 509.044 818.681 508.898 818.655 508.739V508.739ZM817.865 506.917C817.834 506.882 817.838 506.886 817.865 506.917V506.917ZM814.38 508.337C814.328 508.252 814.333 508.264 814.38 508.337V508.337ZM815.206 509.047C815.324 509.1 815.402 509.115 815.206 509.047V509.047ZM815.574 509.225L815.656 509.187C815.636 509.189 815.616 509.185 815.598 509.175L815.601 509.175L815.665 509.183L815.677 509.177L815.64 509.169C815.672 509.168 815.674 509.172 815.677 509.177C816.046 509.006 815.797 509.088 815.583 509.155L815.568 509.152C815.435 509.083 815.291 509.037 815.143 509.014C815.129 509.006 815.113 509 815.101 508.992C814.982 508.906 814.381 508.43 814.939 508.929C814.817 508.821 814.698 508.714 814.583 508.597C814.516 508.527 814.455 508.451 814.401 508.37C814.328 508.243 814.257 508.114 814.188 507.985L814.178 507.915C814.169 507.857 814.162 507.833 814.155 507.798C814.158 507.762 814.164 507.724 814.169 507.686C814.211 507.573 814.238 507.455 814.248 507.335L814.272 507.304C814.362 507.178 814.44 507.031 814.525 506.899C814.075 507.592 814.701 506.823 814.748 506.726C814.755 506.709 814.742 506.718 814.745 506.707C814.763 506.696 814.758 506.703 814.78 506.69C814.919 506.607 815.051 506.514 815.193 506.435C815.362 506.34 816.026 506.149 815.337 506.348C815.494 506.303 815.644 506.246 815.802 506.204C815.831 506.196 816.063 506.164 816.188 506.141C816.297 506.138 816.404 506.135 816.415 506.135C816.467 506.135 816.518 506.142 816.57 506.144C816.455 506.16 816.962 506.271 817.113 506.294C817.134 506.311 817.146 506.322 817.175 506.344C817.302 506.439 817.457 506.522 817.591 506.61C816.991 506.217 817.599 506.641 817.714 506.758C817.783 506.827 817.846 506.901 817.91 506.974C817.97 507.044 818.023 507.118 818.07 507.197C818.169 507.38 818.274 507.565 818.377 507.745L818.406 507.791C818.405 507.797 818.405 507.803 818.405 507.809C818.459 508.1 818.538 508.387 818.643 508.664C818.648 508.687 818.652 508.711 818.654 508.735C818.664 508.895 818.677 509.054 818.677 509.215L818.676 509.247C818.198 508.995 817.667 508.861 817.128 508.857C816.589 508.853 816.056 508.979 815.574 509.225Z" fill="#FF8C42"/>
<path d="M815.665 370.73L815.657 370.734L815.674 370.73H815.665Z" fill="#E6E6E6"/>
<path d="M815.683 370.729L815.673 370.731C815.686 370.732 815.683 370.729 815.683 370.729Z" fill="#E6E6E6"/>
<path d="M815.685 370.726C815.695 370.729 815.683 370.73 815.683 370.73L815.685 370.726Z" fill="#E6E6E6"/>
<path d="M815.678 370.724L815.681 370.725L815.678 370.724Z" fill="#E6E6E6"/>
<path d="M948.577 406.897C947.141 404.321 944.851 402.344 942.113 401.317C939.376 400.291 936.368 400.28 933.623 401.289C932.259 401.793 931.008 402.57 929.945 403.573C928.883 404.575 928.029 405.784 927.435 407.127C927.316 407.412 927.247 407.713 927.15 408.005C927.015 408.225 926.853 408.425 926.733 408.655C925.446 411.254 925.093 414.227 925.736 417.061C926.379 419.895 927.977 422.413 930.255 424.182C932.533 425.95 935.349 426.859 938.217 426.75C941.085 426.641 943.825 425.523 945.967 423.587C948.218 421.525 949.704 418.745 950.179 415.709C950.653 412.672 950.088 409.562 948.577 406.897ZM940.798 412.241C940.814 412.546 940.824 412.4 940.798 412.241V412.241ZM940.008 410.419C939.977 410.384 939.981 410.388 940.008 410.419V410.419ZM936.523 411.839C936.472 411.754 936.476 411.766 936.523 411.839V411.839ZM937.349 412.549C937.468 412.603 937.545 412.617 937.349 412.549V412.549ZM937.718 412.727L937.799 412.689C937.779 412.691 937.759 412.687 937.741 412.677L937.744 412.677L937.808 412.685L937.82 412.68L937.783 412.671C937.815 412.67 937.818 412.674 937.82 412.68C938.189 412.508 937.94 412.59 937.726 412.658L937.711 412.654C937.578 412.585 937.434 412.539 937.286 412.516C937.272 412.508 937.256 412.502 937.244 412.494C937.125 412.408 936.524 411.932 937.082 412.431C936.961 412.323 936.841 412.216 936.727 412.099C936.659 412.029 936.598 411.953 936.544 411.872C936.471 411.745 936.4 411.617 936.332 411.487L936.321 411.417C936.312 411.359 936.305 411.335 936.298 411.3C936.301 411.264 936.307 411.226 936.313 411.188C936.354 411.075 936.381 410.957 936.391 410.837L936.415 410.806C936.505 410.68 936.583 410.533 936.668 410.402C936.218 411.094 936.844 410.325 936.891 410.228C936.899 410.211 936.885 410.22 936.888 410.209C936.906 410.198 936.901 410.205 936.923 410.192C937.062 410.109 937.194 410.016 937.336 409.937C937.505 409.842 938.169 409.651 937.48 409.85C937.637 409.805 937.787 409.748 937.945 409.706C937.974 409.698 938.206 409.666 938.331 409.643C938.44 409.64 938.547 409.637 938.558 409.637C938.61 409.637 938.661 409.644 938.713 409.646C938.598 409.662 939.105 409.773 939.256 409.796C939.278 409.813 939.289 409.824 939.318 409.846C939.445 409.941 939.6 410.024 939.735 410.112C939.134 409.719 939.742 410.144 939.857 410.26C939.926 410.329 939.989 410.403 940.053 410.477C940.113 410.546 940.166 410.621 940.213 410.699C940.312 410.882 940.417 411.067 940.52 411.247L940.549 411.293C940.548 411.299 940.548 411.305 940.548 411.311C940.602 411.602 940.681 411.889 940.786 412.166C940.791 412.19 940.795 412.213 940.797 412.237C940.807 412.397 940.82 412.556 940.821 412.717L940.819 412.749C940.341 412.497 939.81 412.363 939.271 412.359C938.732 412.355 938.199 412.481 937.718 412.727Z" fill="#FF8C42"/>
<path d="M937.808 412.686L937.8 412.69L937.817 412.686H937.808Z" fill="#E6E6E6"/>
<path d="M937.821 412.679L937.824 412.681L937.821 412.679Z" fill="#E6E6E6"/>
<path d="M937.828 412.682C937.838 412.685 937.826 412.685 937.826 412.685L937.828 412.682Z" fill="#E6E6E6"/>
<path d="M937.827 412.685L937.816 412.686C937.829 412.688 937.827 412.685 937.827 412.685Z" fill="#E6E6E6"/>
<path d="M904.499 509.071L808.24 514.493C807.698 514.523 807.164 514.342 806.75 513.986C806.335 513.63 806.071 513.126 806.012 512.578C805.954 512.031 806.104 511.481 806.433 511.043C806.762 510.605 807.245 510.311 807.781 510.223L906.168 494L904.499 509.071Z" fill="#3F3D56"/>
<path d="M1026.67 725.977L1062.94 664.139L1089.75 676.97C1089.75 676.97 1043.55 735.438 1042.08 737.12C1042.71 739.962 1042.48 742.931 1041.41 745.634C1040.33 748.337 1038.48 750.647 1036.08 752.258C1033.69 753.869 1030.87 754.706 1027.99 754.657C1025.12 754.608 1022.33 753.676 1019.99 751.984C1017.65 750.293 1015.87 747.921 1014.89 745.183C1013.91 742.445 1013.77 739.47 1014.49 736.651C1015.22 733.832 1016.77 731.303 1018.94 729.397C1021.12 727.491 1023.81 726.298 1026.67 725.977Z" fill="#FFB6B6"/>
<path d="M1041.76 582.331L1100.53 613.4C1104.2 616.081 1107.28 619.509 1109.57 623.465C1111.86 627.421 1113.31 631.818 1113.83 636.375C1114.35 640.931 1113.92 645.547 1112.58 649.928C1111.24 654.308 1109.01 658.356 1106.03 661.814L1065.52 708.908L1047.87 684.673L1061.47 655.849L1035.13 648.811L1041.76 582.331Z" fill="#FF8C42"/>
<path d="M874.283 509.833L867.663 581.458L838.013 581.508C838.013 581.508 855.024 508.619 855.642 506.46C853.871 504.166 852.829 501.381 852.653 498.474C852.478 495.567 853.177 492.674 854.66 490.178C856.142 487.682 858.337 485.702 860.954 484.498C863.572 483.294 866.488 482.923 869.318 483.435C872.148 483.947 874.758 485.318 876.802 487.366C878.846 489.413 880.229 492.042 880.767 494.903C881.305 497.764 880.973 500.724 879.815 503.39C878.657 506.056 876.728 508.303 874.283 509.833Z" fill="#FFB6B6"/>
<path d="M933.303 656.304L865.059 643.623C836.321 640.121 824.528 620.961 829.713 602.272L846.4 542.128L872.597 556.36L872.497 588.309L909.167 583.229L933.303 656.304Z" fill="#FF8C42"/>
<path d="M905.368 1151.29H886.603L877.677 1077.94H905.372L905.368 1151.29Z" fill="#FFB6B6"/>
<path d="M906.029 1171.12L848.325 1171.12V1170.38C848.326 1164.35 850.692 1158.56 854.904 1154.29C859.116 1150.02 864.829 1147.62 870.785 1147.62L881.327 1139.52L900.993 1147.62L906.03 1147.62L906.029 1171.12Z" fill="#2F2E41"/>
<path d="M1038.14 1151.29H1056.91L1065.83 1077.94H1038.14L1038.14 1151.29Z" fill="#FFB6B6"/>
<path d="M1037.48 1171.12L1095.18 1171.12V1170.38C1095.18 1164.35 1092.82 1158.56 1088.61 1154.29C1084.39 1150.02 1078.68 1147.62 1072.72 1147.62L1062.18 1139.52L1042.52 1147.62L1037.48 1147.62L1037.48 1171.12Z" fill="#2F2E41"/>
<path d="M876.851 1024.05C877.128 1019.86 879.332 996.719 879.332 996.719L884.61 947.636L893.912 817.528L902.204 783.329L943.247 799.531L976.551 783.353L1016.14 796.175L1046.96 807.888C1046.96 807.888 1047.01 812.902 1047.25 818.959C1047.57 826.887 1048.12 836.608 1049.44 839.135C1051.64 843.601 1051.09 867.574 1051.09 867.574C1051.09 867.574 1053.28 916.349 1056.04 921.697C1058.79 927.046 1059.35 938.183 1058.52 940.416C1057.69 942.649 1061.27 1001.22 1061.27 1001.22C1061.27 1001.22 1070.49 1104.88 1064.71 1120.51C1058.93 1136.14 1037.09 1125.9 1037.09 1125.9C1037.09 1125.9 1038.14 1121.73 1031.81 1119.77C1025.48 1117.8 1006.19 970.82 1006.19 970.82C1006.19 970.82 1002.6 940.683 999.299 932.046C996 923.409 992.965 899.141 992.965 899.141C992.965 899.141 972.593 858.976 972.329 850.045C972.329 850.045 969.663 841.688 967.143 850.887C964.623 860.086 957.194 882.121 957.194 882.121L949.95 909.182L941.426 949.615L935.911 983.656C935.911 983.656 927.651 1028.83 926.332 1030.79C925.012 1032.74 926.332 1074.01 926.332 1074.01C926.332 1074.01 919.945 1109.16 910.92 1115.3C901.895 1121.44 877.983 1115.4 877.983 1115.4C877.983 1115.4 876.574 1028.23 876.851 1024.05Z" fill="#2F2E41"/>
<path d="M907.534 673.287L902.289 742.132L894.41 750.396C893.699 751.141 893.144 752.023 892.778 752.991C892.413 753.958 892.243 754.99 892.28 756.026C892.318 757.061 892.561 758.078 892.995 759.016C893.429 759.954 894.046 760.794 894.808 761.484L890.466 769.028L888.93 792.796C888.491 794.645 888.461 796.57 888.842 798.432C889.222 800.295 890.004 802.049 891.131 803.57C892.258 805.091 893.703 806.341 895.361 807.231C897.02 808.121 898.853 808.628 900.728 808.718L1036.6 815.186C1038.46 815.275 1040.33 814.948 1042.05 814.228C1043.78 813.508 1045.33 812.413 1046.59 811.02C1047.85 809.627 1048.8 807.97 1049.36 806.166C1049.92 804.362 1050.08 802.455 1049.84 800.581L1038.28 712.445V705.855L1033.11 693.127L1035.77 650.492L1041.95 582.82L1006.01 573.412L986.52 559.825L952.662 560.371L932.118 577.468L904.725 581.815L884.01 585.988L881.371 591.8L886.649 590.637L905.779 666.244L907.534 673.287Z" fill="#FF8C42"/>
<path d="M968.834 550.6C990.862 550.6 1008.72 532.505 1008.72 510.184C1008.72 487.863 990.862 469.768 968.834 469.768C946.806 469.768 928.949 487.863 928.949 510.184C928.949 532.505 946.806 550.6 968.834 550.6Z" fill="#FFB6B6"/>
<path d="M959.218 547.992L988.035 546.503C991.727 546.312 995.757 545.982 998.443 543.407C999.887 541.817 1001 539.946 1001.71 537.908C1004.37 531.638 1007.04 525.367 1009.63 519.067C1013.22 510.353 1016.75 501.152 1015.83 491.755C1015.62 487.463 1013.84 483.404 1010.85 480.362C1009.32 478.896 1007.36 477.984 1005.26 477.769C1003.17 477.554 1001.06 478.048 999.276 479.174C998.832 476.201 997.727 473.37 996.044 470.894C994.361 468.418 992.145 466.363 989.563 464.882C984.348 461.963 978.393 460.684 972.458 461.208C963.845 461.77 955.623 465.054 948.948 470.597C947.07 472.352 945.066 473.962 942.95 475.413C941.886 476.134 940.688 476.627 939.43 476.863C938.171 477.099 936.878 477.073 935.63 476.785C934.394 476.451 933.319 475.674 932.604 474.598C931.889 473.523 931.583 472.221 931.741 470.934C929.712 472.472 928.32 474.721 927.838 477.242C927.356 479.763 927.818 482.375 929.134 484.57C927.638 485.205 926.006 485.437 924.395 485.244C922.784 485.051 921.25 484.439 919.942 483.468C918.54 484.172 917.299 485.166 916.299 486.385C915.298 487.604 914.559 489.021 914.13 490.546C913.701 492.071 913.591 493.67 913.807 495.24C914.023 496.811 914.56 498.318 915.384 499.666C916.209 501.014 917.301 502.172 918.593 503.068C919.885 503.963 921.346 504.575 922.885 504.864C924.423 505.154 926.005 505.115 927.527 504.75C929.05 504.384 930.48 503.701 931.727 502.743C933.476 505.225 932.825 508.598 932.597 511.639C932.369 514.681 933.174 518.46 936.068 519.301C939.979 520.437 943.148 515.1 947.216 515.157C948.22 515.24 949.188 515.572 950.034 516.125C950.881 516.678 951.579 517.434 952.068 518.326C953.027 520.118 953.684 522.06 954.011 524.072L959.218 547.827" fill="#2F2E41"/>
<path d="M2082.82 911.395C2082.82 905.136 2080.75 900.057 2078.2 900.046H1383.96C1381.4 900.057 1379.34 905.136 1379.33 911.395V1169.02C1379.33 1169.6 1379.12 1170.16 1378.73 1170.59C1378.34 1171.02 1377.82 1171.29 1377.24 1171.35C1375.38 1171.53 1373.52 1171.7 1371.65 1171.86C1371.61 1171.86 1371.56 1171.87 1371.52 1171.87C1370.5 1171.96 1369.49 1172.03 1368.47 1172.11H1368.46C1367.94 1171.14 1367.43 1170.15 1366.92 1169.16C1366.74 1168.82 1366.65 1168.45 1366.65 1168.07V896.671C1366.65 894.943 1366.72 893.203 1366.84 891.487C1367 889.13 1367.29 886.784 1367.7 884.458C1369.65 873.611 1374.05 866.266 1379.05 866.243H2083.1C2083.83 866.248 2084.55 866.403 2085.22 866.698C2086.2 867.139 2087.09 867.77 2087.83 868.555C2088.84 869.619 2089.71 870.817 2090.4 872.116C2093.27 877.909 2094.92 884.243 2095.25 890.716C2095.25 890.786 2095.26 890.856 2095.26 890.926C2095.43 892.818 2095.51 894.745 2095.49 896.671L2095.66 921.693L2095.76 936.615L2096.07 983.437L2096.19 1000.06L2096.69 1170.77C2096.69 1171.39 2096.45 1171.98 2096.02 1172.42C2095.59 1172.86 2095 1173.11 2094.39 1173.11H2085.12C2084.51 1173.11 2083.93 1172.86 2083.49 1172.42C2083.06 1171.98 2082.82 1171.39 2082.82 1170.77V911.395Z" fill="#E6E6E6"/>
<path d="M1894.17 749.159H1819.37C1818.31 749.161 1817.29 749.588 1816.55 750.347C1815.8 751.107 1815.38 752.135 1815.38 753.208V872.951H1898.17V753.208C1898.17 752.676 1898.07 752.149 1897.86 751.658C1897.66 751.167 1897.37 750.72 1897 750.344C1896.63 749.968 1896.19 749.67 1895.7 749.467C1895.22 749.263 1894.7 749.159 1894.17 749.159ZM1857.02 817.196C1854.68 817.185 1852.44 816.238 1850.79 814.562C1849.13 812.886 1848.2 810.616 1848.19 808.245V794.434C1848.19 792.06 1849.12 789.783 1850.78 788.104C1852.43 786.426 1854.68 785.483 1857.02 785.483C1859.36 785.483 1861.61 786.426 1863.27 788.104C1864.92 789.783 1865.85 792.06 1865.85 794.434V808.245C1865.84 810.616 1864.91 812.886 1863.26 814.562C1861.6 816.238 1859.36 817.185 1857.02 817.196Z" fill="#CCCCCC"/>
<path d="M1815.13 869.121V880.674C1815.13 881.273 1815.36 881.846 1815.78 882.27C1816.2 882.693 1816.76 882.931 1817.35 882.933H1896.2C1896.79 882.93 1897.35 882.691 1897.77 882.268C1898.19 881.845 1898.42 881.272 1898.42 880.674V869.121H1815.13Z" fill="#3F3D56"/>
<path d="M2018.04 562.286H1698.28C1695.53 562.29 1692.9 563.398 1690.96 565.366C1689.01 567.335 1687.92 570.004 1687.92 572.787V791.438C1687.92 794.222 1689.01 796.892 1690.95 798.86C1692.9 800.829 1695.53 801.937 1698.28 801.939H2018.04C2020.79 801.937 2023.43 800.829 2025.37 798.86C2027.31 796.892 2028.4 794.222 2028.41 791.438V572.787C2028.4 570.004 2027.31 567.335 2025.37 565.366C2023.42 563.398 2020.79 562.29 2018.04 562.286Z" fill="#E6E6E6"/>
<path d="M2015.37 569.871H1700.95C1699.48 569.874 1698.07 570.468 1697.03 571.524C1695.99 572.579 1695.41 574.008 1695.41 575.499V788.73C1695.41 790.218 1696 791.645 1697.04 792.698C1698.07 793.751 1699.48 794.343 1700.95 794.346H2015.37C2016.84 794.343 2018.25 793.751 2019.29 792.698C2020.33 791.645 2020.91 790.218 2020.92 788.73V575.499C2020.92 574.008 2020.33 572.579 2019.29 571.524C2018.26 570.468 2016.85 569.874 2015.37 569.871Z" fill="white"/>
<path d="M1954.13 886.953H1767.07C1766.55 886.953 1766.05 886.837 1765.59 886.614C1765.12 886.391 1764.72 886.066 1764.39 885.663C1764.07 885.26 1763.84 884.789 1763.72 884.285C1763.6 883.78 1763.59 883.255 1763.7 882.747L1766.6 868.778C1766.77 867.997 1767.19 867.296 1767.8 866.792C1768.42 866.289 1769.18 866.012 1769.97 866.01H1951.23C1952.02 866.012 1952.78 866.289 1953.39 866.792C1954.01 867.296 1954.43 867.997 1954.6 868.778L1957.5 882.747C1957.6 883.255 1957.6 883.78 1957.48 884.285C1957.35 884.789 1957.13 885.26 1956.8 885.663C1956.48 886.066 1956.07 886.391 1955.61 886.614C1955.15 886.837 1954.64 886.953 1954.13 886.953Z" fill="#CCCCCC"/>
<path d="M1776.05 868.525H1772.31C1771.75 868.525 1771.3 868.983 1771.3 869.549V871.004C1771.3 871.569 1771.75 872.028 1772.31 872.028H1776.05C1776.61 872.028 1777.06 871.569 1777.06 871.004V869.549C1777.06 868.983 1776.61 868.525 1776.05 868.525Z" fill="#E6E6E6"/>
<path d="M1787.57 868.525H1783.83C1783.27 868.525 1782.82 868.983 1782.82 869.549V871.004C1782.82 871.569 1783.27 872.028 1783.83 872.028H1787.57C1788.13 872.028 1788.58 871.569 1788.58 871.004V869.549C1788.58 868.983 1788.13 868.525 1787.57 868.525Z" fill="#E6E6E6"/>
<path d="M1799.09 868.525H1795.35C1794.79 868.525 1794.34 868.983 1794.34 869.549V871.004C1794.34 871.569 1794.79 872.028 1795.35 872.028H1799.09C1799.65 872.028 1800.1 871.569 1800.1 871.004V869.549C1800.1 868.983 1799.65 868.525 1799.09 868.525Z" fill="#E6E6E6"/>
<path d="M1810.62 868.525H1806.88C1806.32 868.525 1805.86 868.983 1805.86 869.549V871.004C1805.86 871.569 1806.32 872.028 1806.88 872.028H1810.62C1811.17 872.028 1811.63 871.569 1811.63 871.004V869.549C1811.63 868.983 1811.17 868.525 1810.62 868.525Z" fill="#E6E6E6"/>
<path d="M1822.14 868.525H1818.4C1817.84 868.525 1817.39 868.983 1817.39 869.549V871.004C1817.39 871.569 1817.84 872.028 1818.4 872.028H1822.14C1822.7 872.028 1823.15 871.569 1823.15 871.004V869.549C1823.15 868.983 1822.7 868.525 1822.14 868.525Z" fill="#E6E6E6"/>
<path d="M1833.66 868.525H1829.92C1829.36 868.525 1828.91 868.983 1828.91 869.549V871.004C1828.91 871.569 1829.36 872.028 1829.92 872.028H1833.66C1834.22 872.028 1834.67 871.569 1834.67 871.004V869.549C1834.67 868.983 1834.22 868.525 1833.66 868.525Z" fill="#E6E6E6"/>
<path d="M1845.18 868.525H1841.44C1840.89 868.525 1840.43 868.983 1840.43 869.549V871.004C1840.43 871.569 1840.89 872.028 1841.44 872.028H1845.18C1845.74 872.028 1846.19 871.569 1846.19 871.004V869.549C1846.19 868.983 1845.74 868.525 1845.18 868.525Z" fill="#E6E6E6"/>
<path d="M1856.71 868.525H1852.97C1852.41 868.525 1851.96 868.983 1851.96 869.549V871.004C1851.96 871.569 1852.41 872.028 1852.97 872.028H1856.71C1857.26 872.028 1857.72 871.569 1857.72 871.004V869.549C1857.72 868.983 1857.26 868.525 1856.71 868.525Z" fill="#E6E6E6"/>
<path d="M1868.23 868.525H1864.49C1863.93 868.525 1863.48 868.983 1863.48 869.549V871.004C1863.48 871.569 1863.93 872.028 1864.49 872.028H1868.23C1868.79 872.028 1869.24 871.569 1869.24 871.004V869.549C1869.24 868.983 1868.79 868.525 1868.23 868.525Z" fill="#E6E6E6"/>
<path d="M1879.75 868.525H1876.01C1875.45 868.525 1875 868.983 1875 869.549V871.004C1875 871.569 1875.45 872.028 1876.01 872.028H1879.75C1880.31 872.028 1880.76 871.569 1880.76 871.004V869.549C1880.76 868.983 1880.31 868.525 1879.75 868.525Z" fill="#E6E6E6"/>
<path d="M1891.28 868.525H1887.53C1886.98 868.525 1886.52 868.983 1886.52 869.549V871.004C1886.52 871.569 1886.98 872.028 1887.53 872.028H1891.28C1891.83 872.028 1892.29 871.569 1892.29 871.004V869.549C1892.29 868.983 1891.83 868.525 1891.28 868.525Z" fill="#E6E6E6"/>
<path d="M1902.8 868.525H1899.06C1898.5 868.525 1898.05 868.983 1898.05 869.549V871.004C1898.05 871.569 1898.5 872.028 1899.06 872.028H1902.8C1903.36 872.028 1903.81 871.569 1903.81 871.004V869.549C1903.81 868.983 1903.36 868.525 1902.8 868.525Z" fill="#E6E6E6"/>
<path d="M1914.32 868.525H1910.58C1910.02 868.525 1909.57 868.983 1909.57 869.549V871.004C1909.57 871.569 1910.02 872.028 1910.58 872.028H1914.32C1914.88 872.028 1915.33 871.569 1915.33 871.004V869.549C1915.33 868.983 1914.88 868.525 1914.32 868.525Z" fill="#E6E6E6"/>
<path d="M1925.84 868.525H1922.1C1921.55 868.525 1921.09 868.983 1921.09 869.549V871.004C1921.09 871.569 1921.55 872.028 1922.1 872.028H1925.84C1926.4 872.028 1926.85 871.569 1926.85 871.004V869.549C1926.85 868.983 1926.4 868.525 1925.84 868.525Z" fill="#E6E6E6"/>
<path d="M1937.37 868.525H1933.63C1933.07 868.525 1932.62 868.983 1932.62 869.549V871.004C1932.62 871.569 1933.07 872.028 1933.63 872.028H1937.37C1937.92 872.028 1938.38 871.569 1938.38 871.004V869.549C1938.38 868.983 1937.92 868.525 1937.37 868.525Z" fill="#E6E6E6"/>
<path d="M1948.89 868.525H1945.15C1944.59 868.525 1944.14 868.983 1944.14 869.549V871.004C1944.14 871.569 1944.59 872.028 1945.15 872.028H1948.89C1949.45 872.028 1949.9 871.569 1949.9 871.004V869.549C1949.9 868.983 1949.45 868.525 1948.89 868.525Z" fill="#E6E6E6"/>
<path d="M1775.91 874.363H1772.17C1771.61 874.363 1771.16 874.822 1771.16 875.387V876.842C1771.16 877.407 1771.61 877.866 1772.17 877.866H1775.91C1776.47 877.866 1776.92 877.407 1776.92 876.842V875.387C1776.92 874.822 1776.47 874.363 1775.91 874.363Z" fill="#E6E6E6"/>
<path d="M1787.43 874.363H1783.69C1783.14 874.363 1782.68 874.822 1782.68 875.387V876.842C1782.68 877.407 1783.14 877.866 1783.69 877.866H1787.43C1787.99 877.866 1788.44 877.407 1788.44 876.842V875.387C1788.44 874.822 1787.99 874.363 1787.43 874.363Z" fill="#E6E6E6"/>
<path d="M1798.96 874.363H1795.22C1794.66 874.363 1794.21 874.822 1794.21 875.387V876.842C1794.21 877.407 1794.66 877.866 1795.22 877.866H1798.96C1799.51 877.866 1799.97 877.407 1799.97 876.842V875.387C1799.97 874.822 1799.51 874.363 1798.96 874.363Z" fill="#E6E6E6"/>
<path d="M1810.48 874.363H1806.74C1806.18 874.363 1805.73 874.822 1805.73 875.387V876.842C1805.73 877.407 1806.18 877.866 1806.74 877.866H1810.48C1811.04 877.866 1811.49 877.407 1811.49 876.842V875.387C1811.49 874.822 1811.04 874.363 1810.48 874.363Z" fill="#E6E6E6"/>
<path d="M1822 874.363H1818.26C1817.7 874.363 1817.25 874.822 1817.25 875.387V876.842C1817.25 877.407 1817.7 877.866 1818.26 877.866H1822C1822.56 877.866 1823.01 877.407 1823.01 876.842V875.387C1823.01 874.822 1822.56 874.363 1822 874.363Z" fill="#E6E6E6"/>
<path d="M1833.52 874.363H1829.78C1829.23 874.363 1828.77 874.822 1828.77 875.387V876.842C1828.77 877.407 1829.23 877.866 1829.78 877.866H1833.52C1834.08 877.866 1834.54 877.407 1834.54 876.842V875.387C1834.54 874.822 1834.08 874.363 1833.52 874.363Z" fill="#E6E6E6"/>
<path d="M1845.05 874.363H1841.31C1840.75 874.363 1840.3 874.822 1840.3 875.387V876.842C1840.3 877.407 1840.75 877.866 1841.31 877.866H1845.05C1845.61 877.866 1846.06 877.407 1846.06 876.842V875.387C1846.06 874.822 1845.61 874.363 1845.05 874.363Z" fill="#E6E6E6"/>
<path d="M1856.57 874.363H1852.83C1852.27 874.363 1851.82 874.822 1851.82 875.387V876.842C1851.82 877.407 1852.27 877.866 1852.83 877.866H1856.57C1857.13 877.866 1857.58 877.407 1857.58 876.842V875.387C1857.58 874.822 1857.13 874.363 1856.57 874.363Z" fill="#E6E6E6"/>
<path d="M1868.09 874.363H1864.35C1863.8 874.363 1863.34 874.822 1863.34 875.387V876.842C1863.34 877.407 1863.8 877.866 1864.35 877.866H1868.09C1868.65 877.866 1869.1 877.407 1869.1 876.842V875.387C1869.1 874.822 1868.65 874.363 1868.09 874.363Z" fill="#E6E6E6"/>
<path d="M1879.62 874.363H1875.88C1875.32 874.363 1874.87 874.822 1874.87 875.387V876.842C1874.87 877.407 1875.32 877.866 1875.88 877.866H1879.62C1880.17 877.866 1880.63 877.407 1880.63 876.842V875.387C1880.63 874.822 1880.17 874.363 1879.62 874.363Z" fill="#E6E6E6"/>
<path d="M1891.14 874.363H1887.4C1886.84 874.363 1886.39 874.822 1886.39 875.387V876.842C1886.39 877.407 1886.84 877.866 1887.4 877.866H1891.14C1891.7 877.866 1892.15 877.407 1892.15 876.842V875.387C1892.15 874.822 1891.7 874.363 1891.14 874.363Z" fill="#E6E6E6"/>
<path d="M1902.66 874.363H1898.92C1898.36 874.363 1897.91 874.822 1897.91 875.387V876.842C1897.91 877.407 1898.36 877.866 1898.92 877.866H1902.66C1903.22 877.866 1903.67 877.407 1903.67 876.842V875.387C1903.67 874.822 1903.22 874.363 1902.66 874.363Z" fill="#E6E6E6"/>
<path d="M1914.18 874.363H1910.44C1909.89 874.363 1909.43 874.822 1909.43 875.387V876.842C1909.43 877.407 1909.89 877.866 1910.44 877.866H1914.18C1914.74 877.866 1915.2 877.407 1915.2 876.842V875.387C1915.2 874.822 1914.74 874.363 1914.18 874.363Z" fill="#E6E6E6"/>
<path d="M1925.71 874.363H1921.97C1921.41 874.363 1920.96 874.822 1920.96 875.387V876.842C1920.96 877.407 1921.41 877.866 1921.97 877.866H1925.71C1926.27 877.866 1926.72 877.407 1926.72 876.842V875.387C1926.72 874.822 1926.27 874.363 1925.71 874.363Z" fill="#E6E6E6"/>
<path d="M1937.23 874.363H1933.49C1932.93 874.363 1932.48 874.822 1932.48 875.387V876.842C1932.48 877.407 1932.93 877.866 1933.49 877.866H1937.23C1937.79 877.866 1938.24 877.407 1938.24 876.842V875.387C1938.24 874.822 1937.79 874.363 1937.23 874.363Z" fill="#E6E6E6"/>
<path d="M1948.75 874.363H1945.01C1944.45 874.363 1944 874.822 1944 875.387V876.842C1944 877.407 1944.45 877.866 1945.01 877.866H1948.75C1949.31 877.866 1949.76 877.407 1949.76 876.842V875.387C1949.76 874.822 1949.31 874.363 1948.75 874.363Z" fill="#E6E6E6"/>
<path d="M1871.55 881.369H1827.48C1826.92 881.369 1826.47 881.827 1826.47 882.393V883.848C1826.47 884.413 1826.92 884.872 1827.48 884.872H1871.55C1872.11 884.872 1872.56 884.413 1872.56 883.848V882.393C1872.56 881.827 1872.11 881.369 1871.55 881.369Z" fill="#E6E6E6"/>
<path d="M1999.57 599.249H1705.36C1705.06 599.242 1704.77 599.115 1704.55 598.893C1704.34 598.671 1704.22 598.374 1704.22 598.064C1704.22 597.754 1704.34 597.456 1704.55 597.235C1704.77 597.013 1705.06 596.885 1705.36 596.878H1999.57C1999.87 596.885 2000.17 597.013 2000.38 597.235C2000.59 597.456 2000.71 597.754 2000.71 598.064C2000.71 598.374 2000.59 598.671 2000.38 598.893C2000.17 599.115 1999.87 599.242 1999.57 599.249Z" fill="#CACACA"/>
<path d="M1725.39 590.825C1729.18 590.825 1732.25 587.645 1732.25 583.722C1732.25 579.8 1729.18 576.62 1725.39 576.62C1721.6 576.62 1718.53 579.8 1718.53 583.722C1718.53 587.645 1721.6 590.825 1725.39 590.825Z" fill="#CCCCCC"/>
<path d="M1749.08 590.825C1752.86 590.825 1755.93 587.645 1755.93 583.722C1755.93 579.8 1752.86 576.62 1749.08 576.62C1745.29 576.62 1742.22 579.8 1742.22 583.722C1742.22 587.645 1745.29 590.825 1749.08 590.825Z" fill="#CCCCCC"/>
<path d="M1772.76 590.825C1776.55 590.825 1779.62 587.645 1779.62 583.722C1779.62 579.8 1776.55 576.62 1772.76 576.62C1768.98 576.62 1765.91 579.8 1765.91 583.722C1765.91 587.645 1768.98 590.825 1772.76 590.825Z" fill="#CCCCCC"/>
<path d="M1985.31 578.38H1968.48C1968.15 578.387 1967.83 578.526 1967.6 578.767C1967.36 579.009 1967.23 579.333 1967.23 579.671C1967.23 580.009 1967.36 580.334 1967.6 580.575C1967.83 580.817 1968.15 580.955 1968.48 580.962H1985.31C1985.64 580.955 1985.96 580.817 1986.19 580.575C1986.43 580.334 1986.56 580.009 1986.56 579.671C1986.56 579.333 1986.43 579.009 1986.19 578.767C1985.96 578.526 1985.64 578.387 1985.31 578.38Z" fill="#CCCCCC"/>
<path d="M1985.31 583.226H1968.48C1968.15 583.233 1967.83 583.372 1967.6 583.613C1967.36 583.855 1967.23 584.179 1967.23 584.517C1967.23 584.855 1967.36 585.179 1967.6 585.421C1967.83 585.662 1968.15 585.801 1968.48 585.808H1985.31C1985.64 585.801 1985.96 585.662 1986.19 585.421C1986.43 585.179 1986.56 584.855 1986.56 584.517C1986.56 584.179 1986.43 583.855 1986.19 583.613C1985.96 583.372 1985.64 583.233 1985.31 583.226Z" fill="#CCCCCC"/>
<path d="M1985.31 588.066H1968.48C1968.15 588.072 1967.83 588.211 1967.6 588.453C1967.36 588.694 1967.23 589.018 1967.23 589.356C1967.23 589.695 1967.36 590.019 1967.6 590.26C1967.83 590.502 1968.15 590.641 1968.48 590.647H1985.31C1985.64 590.641 1985.96 590.502 1986.19 590.26C1986.43 590.019 1986.56 589.695 1986.56 589.356C1986.56 589.018 1986.43 588.694 1986.19 588.453C1985.96 588.211 1985.64 588.072 1985.31 588.066Z" fill="#CCCCCC"/>
<path d="M1876.22 663.84H1839.46C1836.7 663.84 1834.46 666.108 1834.46 668.906C1834.46 671.704 1836.7 673.972 1839.46 673.972H1876.22C1878.98 673.972 1881.22 671.704 1881.22 668.906C1881.22 666.108 1878.98 663.84 1876.22 663.84Z" fill="#FF5252"/>
<path d="M1899.97 684.105H1815.71C1812.95 684.105 1810.71 686.373 1810.71 689.171C1810.71 691.969 1812.95 694.237 1815.71 694.237H1899.97C1902.73 694.237 1904.97 691.969 1904.97 689.171C1904.97 686.373 1902.73 684.105 1899.97 684.105Z" fill="#E6E6E6"/>
<path d="M1899.97 704.37H1815.71C1812.95 704.37 1810.71 706.638 1810.71 709.436C1810.71 712.234 1812.95 714.502 1815.71 714.502H1899.97C1902.73 714.502 1904.97 712.234 1904.97 709.436C1904.97 706.638 1902.73 704.37 1899.97 704.37Z" fill="#E6E6E6"/>
<path d="M1332.3 1020.08L1315.35 1011.87L1338.63 940.087L1363.64 952.208L1332.3 1020.08Z" fill="#FFB6B6"/>
<path d="M1445.92 1008.51C1444.69 1009.29 1443.45 1010.06 1442.21 1010.83C1439.73 1012.37 1437.23 1013.88 1434.73 1015.37C1433.47 1016.11 1432.2 1016.86 1430.94 1017.59V1017.63L1430.87 1017.64L1430.84 1017.65L1428.93 1018.13L1426.17 1010.77L1424.91 1007.37L1423.11 1002.57L1419.83 993.775L1402.52 947.481L1429.42 940.758L1430.43 944.933H1430.44L1430.94 947.002L1440.34 985.626L1442.26 993.523L1442.32 993.762L1443.48 998.48L1444.47 1002.57L1445.58 1007.13L1445.92 1008.51Z" fill="#FFB6B6"/>
<path d="M1606.39 845.935C1604.69 848.71 1602.94 851.472 1601.19 854.21C1597.93 859.306 1594.58 864.326 1591.14 869.271C1591.14 869.284 1591.13 869.284 1591.12 869.296C1589.11 871.178 1586.9 872.816 1584.52 874.178C1584.42 874.253 1584.31 874.304 1584.21 874.367C1582.46 875.348 1580.59 876.107 1578.66 876.625C1577.96 876.802 1577.25 876.978 1576.55 877.155C1574.04 877.76 1571.55 878.277 1569.07 878.731C1564.67 879.526 1560.31 880.094 1555.98 880.447C1555.63 880.485 1555.28 880.51 1554.93 880.535C1537.12 881.86 1519.78 879.728 1501.68 876.234C1492.74 874.518 1483.61 872.462 1474.17 870.331C1471.08 869.624 1467.98 868.93 1464.84 868.237C1464.61 868.186 1464.36 868.123 1464.11 868.073C1459.63 867.076 1455.07 866.092 1450.4 865.121C1444.53 863.897 1438.46 862.711 1432.17 861.589L1432.61 870.583C1432.99 877.501 1434.41 884.321 1436.82 890.803C1439.51 898.775 1441.64 905.083 1437.14 918.214L1434.98 924.571C1436.1 927.728 1436.49 931.106 1436.1 934.439C1435.72 937.773 1434.58 940.971 1432.78 943.783L1432.34 944.451L1450.4 990.758L1451.57 993.76H1442.32L1430.95 993.772H1411.66L1383.84 937.211L1382.51 934.511V934.372L1385.38 825.676C1385.42 824.718 1385.5 823.746 1385.62 822.788C1386.13 818.43 1387.49 814.217 1389.62 810.397C1391.75 806.577 1394.61 803.225 1398.03 800.537C1401.31 797.939 1405.07 796.028 1409.08 794.915C1413.1 793.802 1417.29 793.509 1421.42 794.053L1430.95 795.302L1450.4 797.85L1464.11 799.653L1464.38 799.691L1504.8 804.989L1507.7 793.006L1508.24 792.804L1525.25 786.484L1584.11 764.624L1584.26 764.574L1588.13 763.136L1588.59 763.892C1588.73 764.12 1588.87 764.347 1588.99 764.574C1592.82 771.525 1595.93 778.854 1598.29 786.447C1602.25 798.85 1605.51 811.472 1608.06 824.251C1608.17 824.806 1608.27 825.311 1608.36 825.765L1608.4 825.904C1608.43 826.118 1608.46 826.257 1608.47 826.295C1609.64 832.908 1608.92 839.722 1606.39 845.935Z" fill="#2F2E41"/>
<path d="M1608.88 805.877C1608.69 805.07 1608.45 804.25 1608.21 803.455C1606.23 797.436 1603.93 791.532 1601.31 785.77C1598.37 779.211 1594.85 772.185 1590.65 764.578C1588.62 760.895 1586.44 757.065 1584.11 753.087C1582.93 751.094 1581.72 749.063 1580.46 746.994C1580.41 746.899 1580.35 746.807 1580.3 746.717L1579.93 746.111L1521.7 754.008L1500.02 756.947L1498.72 767.896L1498.41 770.608C1498.4 770.608 1498.4 770.608 1498.41 770.621L1497.54 778.013V778.025L1496.38 787.789L1496.28 787.776L1464.1 783.55L1430.94 779.198L1413.13 776.865C1409 776.32 1404.8 776.612 1400.79 777.725C1396.77 778.838 1393.02 780.75 1389.74 783.348C1386.31 786.037 1383.45 789.39 1381.32 793.21C1379.19 797.03 1377.83 801.242 1377.32 805.6C1377.21 806.483 1377.14 807.391 1377.1 808.287L1360.3 848.639C1350.24 872.772 1343.83 898.305 1341.3 924.374L1328.97 964.298L1330.73 964.462L1356.85 966.922L1363.74 967.578L1378.93 945.112C1380.66 942.552 1382.3 939.915 1383.83 937.216C1386.36 932.807 1388.6 928.24 1390.54 923.542L1423.4 844.325C1425.94 844.767 1428.45 845.187 1430.94 845.587C1442.45 847.479 1453.51 849.022 1464.1 850.216C1498.55 854.114 1528.37 854.416 1554.93 851.112C1562.38 850.191 1569.59 848.98 1576.55 847.479C1579.1 846.936 1581.62 846.352 1584.11 845.726C1584.69 845.587 1585.26 845.448 1585.84 845.297C1590.98 843.952 1595.71 841.322 1599.59 837.646C1603.47 833.97 1606.38 829.366 1608.06 824.256C1610.05 818.334 1610.34 811.958 1608.88 805.877Z" fill="#2F2E41"/>
<path d="M1337.71 1008.36L1319.38 999.454L1316.5 998.053L1311.91 1009.48L1279.84 1016.63C1278.26 1016.99 1276.82 1017.84 1275.75 1019.08C1274.68 1020.32 1274.03 1021.87 1273.89 1023.5C1273.75 1025.14 1274.13 1026.78 1274.98 1028.19C1275.83 1029.59 1277.09 1030.68 1278.6 1031.3L1309.93 1044.26L1319.87 1035.19L1317.43 1047.36L1329.24 1052.24L1342.17 1010.53L1337.71 1008.36Z" fill="#2F2E41"/>
<path d="M1450.4 990.759L1451.57 993.76H1450.4V990.759Z" fill="#2F2E41"/>
<path d="M1444.02 994.401L1424.8 1001.15L1421.79 1002.2L1426.46 1013.6L1408.64 1041.54C1407.76 1042.92 1407.33 1044.55 1407.43 1046.2C1407.53 1047.84 1408.14 1049.41 1409.18 1050.67C1410.22 1051.93 1411.63 1052.83 1413.21 1053.22C1414.78 1053.61 1416.44 1053.49 1417.94 1052.86L1449.2 1039.72L1449.97 1026.19L1456.69 1036.57L1468.46 1031.63L1448.69 992.766L1444.02 994.401Z" fill="#2F2E41"/>
<path d="M1327.4 577.034C1328.31 578.833 1329.6 580.407 1331.18 581.646C1332.75 582.885 1334.58 583.759 1336.52 584.206C1338.47 584.652 1340.49 584.662 1342.44 584.233C1344.39 583.803 1346.22 582.946 1347.81 581.722L1388.21 608.899L1388.29 583.364L1349.91 561.471C1347.7 558.905 1344.64 557.249 1341.31 556.816C1337.98 556.383 1334.61 557.204 1331.83 559.122C1329.06 561.04 1327.08 563.923 1326.26 567.225C1325.44 570.526 1325.85 574.016 1327.4 577.034Z" fill="#FFB6B6"/>
<path d="M1357.58 588.837L1376.43 567.107L1453.19 613.278L1554.93 603.836C1559.96 603.37 1565.03 604.031 1569.78 605.772C1574.52 607.514 1578.84 610.294 1582.41 613.914C1585.97 617.534 1588.71 621.907 1590.43 626.72C1592.14 631.534 1592.79 636.671 1592.32 641.766C1591.47 650.969 1587.05 659.454 1580.04 665.359C1573.02 671.265 1563.98 674.109 1554.89 673.267L1440.31 662.519L1357.58 588.837Z" fill="#CCCCCC"/>
<path d="M1593.73 589.172L1593.55 588.947C1579.24 587.516 1564.82 590.323 1552.05 597.028C1539.28 603.732 1528.71 614.047 1521.61 626.721L1512.97 642.133C1485.04 676.732 1505.34 700.593 1506.55 704.141L1496.86 749.435L1499.03 764.594L1500.12 769.097L1610.78 827.689C1617.08 797.015 1610.99 770.876 1588.03 750.908L1610.24 680.888C1615.16 665.406 1616.23 648.93 1613.35 632.928C1610.47 616.926 1603.73 601.895 1593.73 589.172Z" fill="#CCCCCC"/>
<path d="M1505.74 929.342H1470.24C1468.29 929.34 1466.4 928.625 1464.93 927.327C1463.45 926.03 1462.49 924.237 1462.22 922.278C1460.03 905.935 1460.03 889.366 1462.22 873.023C1462.49 871.088 1463.43 869.314 1464.88 868.02C1466.32 866.725 1468.18 865.995 1470.11 865.961C1481.27 860.888 1493.3 860.889 1505.86 865.96C1507.03 865.976 1508.18 866.251 1509.24 866.766C1510.29 867.281 1511.22 868.023 1511.96 868.941C1512.73 869.896 1513.28 871.012 1513.58 872.21C1513.87 873.409 1513.89 874.658 1513.65 875.867C1510.8 890.246 1510.8 905.056 1513.65 919.434C1513.89 920.644 1513.87 921.893 1513.58 923.091C1513.28 924.289 1512.73 925.406 1511.96 926.36C1511.21 927.294 1510.26 928.046 1509.18 928.562C1508.1 929.078 1506.93 929.344 1505.74 929.342Z" fill="#00BFA6"/>
<path d="M1502.02 884.739H1472.14C1471.9 884.741 1471.65 884.694 1471.42 884.6C1471.2 884.506 1470.99 884.367 1470.81 884.191C1470.64 884.015 1470.5 883.806 1470.4 883.575C1470.31 883.344 1470.26 883.097 1470.26 882.847C1470.26 882.597 1470.31 882.35 1470.4 882.119C1470.5 881.888 1470.64 881.679 1470.81 881.503C1470.99 881.327 1471.2 881.188 1471.42 881.094C1471.65 881 1471.9 880.953 1472.14 880.955H1502.02C1502.27 880.953 1502.51 881 1502.74 881.094C1502.97 881.188 1503.18 881.327 1503.35 881.503C1503.53 881.679 1503.67 881.888 1503.76 882.119C1503.85 882.35 1503.9 882.597 1503.9 882.847C1503.9 883.097 1503.85 883.344 1503.76 883.575C1503.67 883.806 1503.53 884.015 1503.35 884.191C1503.18 884.367 1502.97 884.506 1502.74 884.6C1502.51 884.694 1502.27 884.741 1502.02 884.739Z" fill="white"/>
<path d="M1502.02 899.876H1472.14C1471.9 899.878 1471.65 899.831 1471.42 899.737C1471.2 899.643 1470.99 899.504 1470.81 899.328C1470.64 899.152 1470.5 898.943 1470.4 898.712C1470.31 898.481 1470.26 898.234 1470.26 897.984C1470.26 897.734 1470.31 897.487 1470.4 897.256C1470.5 897.025 1470.64 896.816 1470.81 896.64C1470.99 896.464 1471.2 896.325 1471.42 896.231C1471.65 896.137 1471.9 896.09 1472.14 896.092H1502.02C1502.27 896.09 1502.51 896.137 1502.74 896.231C1502.97 896.325 1503.18 896.464 1503.35 896.64C1503.53 896.816 1503.67 897.025 1503.76 897.256C1503.85 897.487 1503.9 897.734 1503.9 897.984C1503.9 898.234 1503.85 898.481 1503.76 898.712C1503.67 898.943 1503.53 899.152 1503.35 899.328C1503.18 899.504 1502.97 899.643 1502.74 899.737C1502.51 899.831 1502.27 899.878 1502.02 899.876Z" fill="white"/>
<path d="M1502.02 915.013H1472.14C1471.9 915.016 1471.65 914.968 1471.42 914.874C1471.2 914.78 1470.99 914.641 1470.81 914.465C1470.64 914.289 1470.5 914.08 1470.4 913.849C1470.31 913.618 1470.26 913.371 1470.26 913.121C1470.26 912.871 1470.31 912.623 1470.4 912.393C1470.5 912.162 1470.64 911.953 1470.81 911.777C1470.99 911.601 1471.2 911.462 1471.42 911.368C1471.65 911.274 1471.9 911.226 1472.14 911.229H1502.02C1502.27 911.226 1502.51 911.274 1502.74 911.368C1502.97 911.462 1503.18 911.601 1503.35 911.777C1503.53 911.953 1503.67 912.162 1503.76 912.393C1503.86 912.623 1503.9 912.871 1503.9 913.121C1503.9 913.371 1503.86 913.618 1503.76 913.849C1503.67 914.08 1503.53 914.289 1503.35 914.465C1503.18 914.641 1502.97 914.78 1502.74 914.874C1502.51 914.968 1502.27 915.016 1502.02 915.013Z" fill="white"/>
<path d="M1333.91 589.501H1298.41C1296.46 589.499 1294.57 588.784 1293.1 587.487C1291.63 586.189 1290.66 584.396 1290.39 582.438C1288.2 566.094 1288.2 549.526 1290.39 533.183C1290.66 531.247 1291.6 529.473 1293.05 528.179C1294.49 526.885 1296.35 526.155 1298.28 526.12C1309.44 521.048 1321.47 521.048 1334.03 526.12C1335.2 526.136 1336.35 526.41 1337.41 526.925C1338.46 527.44 1339.39 528.183 1340.13 529.1C1340.9 530.055 1341.45 531.172 1341.75 532.37C1342.04 533.568 1342.07 534.817 1341.82 536.026C1338.97 550.405 1338.97 565.215 1341.82 579.594C1342.07 580.803 1342.04 582.052 1341.75 583.25C1341.45 584.448 1340.9 585.565 1340.13 586.52C1339.38 587.454 1338.43 588.206 1337.35 588.721C1336.28 589.237 1335.1 589.503 1333.91 589.501Z" fill="#00BFA6"/>
<path d="M1330.19 544.899H1300.32C1300.07 544.901 1299.82 544.854 1299.6 544.76C1299.37 544.665 1299.16 544.526 1298.98 544.351C1298.81 544.175 1298.67 543.965 1298.58 543.735C1298.48 543.504 1298.43 543.257 1298.43 543.007C1298.43 542.757 1298.48 542.509 1298.58 542.279C1298.67 542.048 1298.81 541.839 1298.98 541.663C1299.16 541.487 1299.37 541.348 1299.6 541.254C1299.82 541.16 1300.07 541.112 1300.32 541.115H1330.19C1330.44 541.112 1330.68 541.16 1330.91 541.254C1331.14 541.348 1331.35 541.487 1331.52 541.663C1331.7 541.839 1331.84 542.048 1331.93 542.279C1332.03 542.509 1332.08 542.757 1332.08 543.007C1332.08 543.257 1332.03 543.504 1331.93 543.735C1331.84 543.965 1331.7 544.175 1331.52 544.351C1331.35 544.526 1331.14 544.665 1330.91 544.76C1330.68 544.854 1330.44 544.901 1330.19 544.899Z" fill="white"/>
<path d="M1330.19 560.036H1300.32C1300.07 560.038 1299.82 559.991 1299.6 559.896C1299.37 559.802 1299.16 559.663 1298.98 559.487C1298.81 559.311 1298.67 559.102 1298.58 558.872C1298.48 558.641 1298.43 558.393 1298.43 558.144C1298.43 557.894 1298.48 557.646 1298.58 557.416C1298.67 557.185 1298.81 556.976 1298.98 556.8C1299.16 556.624 1299.37 556.485 1299.6 556.391C1299.82 556.297 1300.07 556.249 1300.32 556.251H1330.19C1330.44 556.249 1330.68 556.297 1330.91 556.391C1331.14 556.485 1331.35 556.624 1331.52 556.8C1331.7 556.976 1331.84 557.185 1331.93 557.416C1332.03 557.646 1332.08 557.894 1332.08 558.144C1332.08 558.393 1332.03 558.641 1331.93 558.872C1331.84 559.102 1331.7 559.311 1331.52 559.487C1331.35 559.663 1331.14 559.802 1330.91 559.896C1330.68 559.991 1330.44 560.038 1330.19 560.036Z" fill="white"/>
<path d="M1330.35 575.421H1300.48C1300.23 575.423 1299.99 575.376 1299.76 575.282C1299.53 575.188 1299.32 575.049 1299.15 574.873C1298.97 574.697 1298.83 574.488 1298.74 574.257C1298.64 574.026 1298.59 573.779 1298.59 573.529C1298.59 573.279 1298.64 573.031 1298.74 572.801C1298.83 572.57 1298.97 572.361 1299.15 572.185C1299.32 572.009 1299.53 571.87 1299.76 571.776C1299.99 571.682 1300.23 571.634 1300.48 571.637H1330.35C1330.6 571.634 1330.84 571.682 1331.07 571.776C1331.3 571.87 1331.51 572.009 1331.68 572.185C1331.86 572.361 1332 572.57 1332.09 572.801C1332.19 573.031 1332.24 573.279 1332.24 573.529C1332.24 573.779 1332.19 574.026 1332.09 574.257C1332 574.488 1331.86 574.697 1331.68 574.873C1331.51 575.049 1331.3 575.188 1331.07 575.282C1330.84 575.376 1330.6 575.423 1330.35 575.421Z" fill="white"/>
<path d="M710.772 681.803H675.276C673.323 681.802 671.437 681.087 669.963 679.789C668.49 678.491 667.527 676.699 667.253 674.74C665.061 658.397 665.061 641.828 667.253 625.485C667.524 623.55 668.467 621.776 669.912 620.481C671.358 619.187 673.211 618.457 675.14 618.423C686.308 613.35 698.335 613.351 710.894 618.422C712.064 618.438 713.216 618.713 714.27 619.228C715.323 619.743 716.253 620.485 716.993 621.403C717.765 622.357 718.318 623.474 718.61 624.672C718.903 625.87 718.929 627.119 718.686 628.329C715.834 642.707 715.834 657.517 718.686 671.896C718.929 673.105 718.903 674.355 718.61 675.553C718.318 676.751 717.765 677.868 716.993 678.822C716.24 679.756 715.291 680.508 714.215 681.024C713.138 681.54 711.963 681.806 710.772 681.803Z" fill="#00BFA6"/>
<path d="M707.055 637.201H677.178C676.932 637.203 676.687 637.156 676.459 637.062C676.23 636.968 676.023 636.829 675.847 636.653C675.672 636.477 675.533 636.268 675.438 636.037C675.344 635.806 675.295 635.559 675.295 635.309C675.295 635.059 675.344 634.812 675.438 634.581C675.533 634.35 675.672 634.141 675.847 633.965C676.023 633.789 676.23 633.65 676.459 633.556C676.687 633.462 676.932 633.415 677.178 633.417H707.055C707.301 633.415 707.546 633.462 707.774 633.556C708.003 633.65 708.211 633.789 708.386 633.965C708.561 634.141 708.7 634.35 708.795 634.581C708.89 634.812 708.938 635.059 708.938 635.309C708.938 635.559 708.89 635.806 708.795 636.037C708.7 636.268 708.561 636.477 708.386 636.653C708.211 636.829 708.003 636.968 707.774 637.062C707.546 637.156 707.301 637.203 707.055 637.201Z" fill="white"/>
<path d="M707.055 652.338H677.178C676.932 652.34 676.687 652.293 676.459 652.199C676.23 652.105 676.023 651.966 675.847 651.79C675.672 651.614 675.533 651.405 675.438 651.174C675.344 650.943 675.295 650.696 675.295 650.446C675.295 650.196 675.344 649.949 675.438 649.718C675.533 649.487 675.672 649.278 675.847 649.102C676.023 648.926 676.23 648.787 676.459 648.693C676.687 648.599 676.932 648.552 677.178 648.554H707.055C707.301 648.552 707.546 648.599 707.774 648.693C708.003 648.787 708.211 648.926 708.386 649.102C708.561 649.278 708.7 649.487 708.795 649.718C708.89 649.949 708.938 650.196 708.938 650.446C708.938 650.696 708.89 650.943 708.795 651.174C708.7 651.405 708.561 651.614 708.386 651.79C708.211 651.966 708.003 652.105 707.774 652.199C707.546 652.293 707.301 652.34 707.055 652.338Z" fill="white"/>
<path d="M707.055 667.475H677.178C676.932 667.477 676.687 667.43 676.458 667.336C676.23 667.242 676.022 667.103 675.847 666.927C675.671 666.751 675.532 666.542 675.437 666.311C675.342 666.081 675.294 665.833 675.294 665.583C675.294 665.333 675.342 665.086 675.437 664.855C675.532 664.624 675.671 664.415 675.847 664.239C676.022 664.063 676.23 663.924 676.458 663.83C676.687 663.736 676.932 663.689 677.178 663.691H707.055C707.301 663.689 707.546 663.736 707.775 663.83C708.003 663.924 708.211 664.063 708.386 664.239C708.562 664.415 708.701 664.624 708.796 664.855C708.891 665.086 708.94 665.333 708.94 665.583C708.94 665.833 708.891 666.081 708.796 666.311C708.701 666.542 708.562 666.751 708.386 666.927C708.211 667.103 708.003 667.242 707.775 667.336C707.546 667.43 707.301 667.477 707.055 667.475Z" fill="white"/>
<path d="M1516.14 883.362C1517.86 882.334 1519.33 880.937 1520.46 879.269C1521.58 877.601 1522.34 875.703 1522.66 873.708C1522.99 871.714 1522.88 869.671 1522.34 867.725C1521.8 865.778 1520.85 863.975 1519.55 862.442L1543.92 819.962L1518.76 821.399L1499.47 861.519C1497.07 863.903 1495.62 867.096 1495.4 870.491C1495.17 873.887 1496.17 877.25 1498.23 879.942C1500.28 882.635 1503.24 884.47 1506.54 885.1C1509.84 885.731 1513.26 885.112 1516.14 883.362Z" fill="#FFB6B6"/>
<path d="M1525.97 852.131L1503.45 834.353L1544.38 753.978L1529.04 651.622C1528.28 646.563 1528.64 641.396 1530.07 636.49C1531.5 631.583 1533.99 627.056 1537.34 623.231C1540.7 619.406 1544.84 616.376 1549.48 614.356C1554.12 612.337 1559.14 611.377 1564.19 611.546C1573.31 611.86 1581.93 615.826 1588.16 622.574C1594.4 629.321 1597.73 638.299 1597.44 647.537L1593.65 764.083L1525.97 852.131Z" fill="#CCCCCC"/>
<path d="M437.258 830.171C438.677 828.726 439.766 826.984 440.448 825.066C441.13 823.149 441.389 821.103 441.207 819.073C441.024 817.043 440.405 815.079 439.392 813.317C438.379 811.556 436.998 810.042 435.345 808.88L457.252 698.62L433.06 706.491L415.524 813.14C413.783 816.083 413.167 819.572 413.794 822.944C414.421 826.316 416.247 829.338 418.926 831.438C421.605 833.537 424.951 834.567 428.33 834.334C431.708 834.101 434.885 832.619 437.258 830.171Z" fill="#9E616A"/>
<path d="M469.605 596.89L454.595 585.409C454.595 585.409 441.354 584.459 439.009 608.656C436.663 632.853 431.848 680.009 431.848 680.009L408.879 787.806L440.674 794.878L465.275 678.545L480.033 643.999L469.605 596.89Z" fill="#CCCCCC"/>
<path d="M444.859 772.912L529.442 771.484L536.492 712.916H444.859V772.912Z" fill="#9E616A"/>
<path d="M520.984 1133.32H540.51L549.799 1057L520.979 1057L520.984 1133.32Z" fill="#9E616A"/>
<path d="M398.654 1135.15L418.18 1135.01L426.942 1058.63L401.546 1064.53L398.654 1135.15Z" fill="#9E616A"/>
<path d="M459.726 662.479L455.302 674.134L456.186 685.792L542.777 716.182L538.481 665.168L528.747 653.511L459.726 662.479Z" fill="#FFB6B6"/>
<path d="M496.874 557.58C513.955 557.58 527.801 543.549 527.801 526.242C527.801 508.934 513.955 494.903 496.874 494.903C479.794 494.903 465.947 508.934 465.947 526.242C465.947 543.549 479.794 557.58 496.874 557.58Z" fill="#9E616A"/>
<path d="M516.14 1123.56L547.008 1121.69V1135.09L576.354 1155.63C577.804 1156.64 578.895 1158.1 579.47 1159.79C580.044 1161.48 580.071 1163.31 579.547 1165.01C579.023 1166.71 577.975 1168.2 576.556 1169.26C575.137 1170.32 573.422 1170.89 571.66 1170.89H534.911L528.577 1157.63L526.104 1170.89H512.248L516.14 1123.56Z" fill="#2F2E41"/>
<path d="M391.974 1125.44L422.828 1123.35L422.921 1136.75L452.408 1157.08C453.865 1158.09 454.966 1159.53 455.553 1161.22C456.139 1162.9 456.178 1164.73 455.666 1166.44C455.153 1168.15 454.116 1169.64 452.704 1170.71C451.293 1171.78 449.581 1172.36 447.82 1172.37L411.072 1172.63L404.646 1159.42L402.265 1172.7L388.409 1172.8L391.974 1125.44Z" fill="#2F2E41"/>
<path d="M392.578 1076.64L406.797 961.473L423.713 840.052C411.325 816.738 439.22 744.343 439.22 744.343L443.158 744.535L532.281 761.572L532.262 761.485C550.49 811.865 556.529 836.754 555.53 890.404L551.939 1083.26H553.066C554.935 1083.26 556.728 1084.02 558.05 1085.36C559.372 1086.69 560.115 1088.51 560.115 1090.41C560.115 1092.3 559.372 1094.12 558.05 1095.46C556.728 1096.8 554.935 1097.55 553.066 1097.55H517.823C516.896 1097.55 515.978 1097.37 515.122 1097.01C514.265 1096.65 513.487 1096.12 512.831 1095.46C512.175 1094.8 511.655 1094.01 511.3 1093.14C510.945 1092.27 510.762 1091.34 510.762 1090.41C510.762 1089.47 510.945 1088.54 511.3 1087.67C511.655 1086.8 512.175 1086.01 512.831 1085.35C513.487 1084.69 514.265 1084.16 515.122 1083.8C515.978 1083.45 516.896 1083.26 517.823 1083.26H518.732L486.383 853.625L458.956 950.045L427.942 1075.75C439.22 1072.89 437.469 1079.51 437.469 1083.26C437.469 1085.16 436.726 1086.97 435.404 1088.31C434.083 1089.65 432.29 1090.41 430.42 1090.41H395.177C393.538 1090.41 391.95 1089.83 390.686 1088.77C389.422 1087.71 388.562 1086.24 388.254 1084.61C387.946 1082.98 388.21 1081.29 388.999 1079.84C389.788 1078.38 391.054 1077.25 392.578 1076.64Z" fill="#2F2E41"/>
<path d="M432.281 748.093L435.1 719.524C435.393 718.358 436.042 717.316 436.955 716.548C437.868 715.779 438.998 715.324 440.182 715.246C441.357 701.636 446.3 642.923 446.595 640.363L446.606 640.254L448.854 591.603C448.936 589.836 449.657 588.162 450.88 586.9C452.102 585.637 453.741 584.876 455.483 584.76L467.354 583.974C467.517 583.969 467.671 583.899 467.785 583.78C467.898 583.662 467.961 583.503 467.961 583.338C467.961 582.01 468.219 580.694 468.721 579.467C469.223 578.24 469.958 577.124 470.885 576.185C471.812 575.246 472.912 574.501 474.124 573.992C475.335 573.484 476.633 573.222 477.944 573.222H513.09C515.366 573.223 517.564 574.066 519.271 575.593C520.978 577.119 522.076 579.224 522.36 581.513C522.375 581.671 522.449 581.816 522.566 581.921C522.683 582.026 522.835 582.082 522.991 582.079H522.995C526.989 581.995 530.879 583.366 533.961 585.94C537.043 588.515 539.112 592.124 539.793 596.113C544.598 624.441 554.227 688.736 549.466 724.48C547.809 736.923 551.381 727.067 552.008 737.478C552.07 738.485 551.936 739.493 551.613 740.447C551.29 741.4 550.784 742.28 550.125 743.035C551.475 743.532 552.576 744.548 553.191 745.863C553.805 747.177 553.883 748.685 553.407 750.057L554.025 749.902C553.844 750.63 553.523 751.314 553.081 751.916C552.639 752.518 552.085 753.026 551.449 753.411C550.813 753.796 550.109 754.05 549.376 754.159C548.644 754.268 547.897 754.23 547.179 754.046L455.228 766.671C452.209 765.9 431.519 751.153 432.281 748.093Z" fill="#CCCCCC"/>
<path d="M677.984 631.935C677.408 633.888 676.417 635.689 675.079 637.212C673.742 638.734 672.091 639.941 670.244 640.748C668.397 641.554 666.397 641.94 664.387 641.879C662.376 641.817 660.403 641.31 658.607 640.392L623.06 673.265L618.34 647.966L652.842 620.709C654.563 617.754 657.295 615.541 660.518 614.49C663.742 613.439 667.235 613.623 670.334 615.006C673.433 616.39 675.923 618.878 677.333 621.998C678.743 625.118 678.975 628.654 677.984 631.935Z" fill="#9E616A"/>
<path d="M554.259 606.808C554.259 606.808 541.864 578.424 526.208 584.066C510.553 589.708 518.636 617.248 518.636 617.248L577.453 707.057C577.453 707.057 662.289 651.912 651.973 651.522C641.657 651.133 638.571 632.12 638.571 632.12L593.734 654.822L592.217 646.74L589.785 649.204L583.511 644.2L554.259 606.808Z" fill="#CCCCCC"/>
<path d="M1568.22 575.627C1592.06 575.627 1611.39 556.038 1611.39 531.874C1611.39 507.709 1592.06 488.12 1568.22 488.12C1544.37 488.12 1525.04 507.709 1525.04 531.874C1525.04 556.038 1544.37 575.627 1568.22 575.627Z" fill="#FFB6B6"/>
<path d="M1706.79 596.256C1701.81 603.411 1694.53 608.599 1686.21 610.94C1682.87 611.945 1679.43 612.537 1675.96 612.704C1675.53 608.724 1674.5 604.834 1672.91 601.168C1673.07 605.07 1672.54 608.968 1671.33 612.677C1666.12 612.377 1661.02 610.993 1656.35 608.61C1651.77 606.274 1647.79 602.888 1644.72 598.721C1641.66 594.554 1639.59 589.72 1638.69 584.603C1636.86 572.636 1642.22 560.884 1644.15 548.935C1646.1 536.986 1642.45 521.851 1630.9 518.711C1622.11 516.318 1623.1 517.352 1615.79 522.85C1623.39 534.24 1595.31 575.979 1583.82 572.339C1577.33 570.281 1573.17 564.241 1571.83 564.241C1562.8 580.005 1579.8 606.567 1562.66 612.083L1564.07 610.652C1574.42 597.758 1552.8 570.467 1563.14 557.573C1566.03 553.965 1569.1 549.691 1568.25 545.129C1567.44 540.792 1560.65 538.498 1558.66 542.061C1562.24 533.756 1556.95 522.67 1548.21 520.537C1540.44 518.639 1540.58 520.978 1532.78 521.995C1532.27 518.581 1531.32 515.25 1529.95 512.088C1530.09 515.495 1529.7 518.903 1528.79 522.184C1526.03 522.13 1523.37 521.155 1521.22 519.413C1514.86 514.221 1516.15 503.315 1521.82 497.368C1527.51 491.42 1535.95 489.278 1544.01 487.893C1546.35 471.372 1591.33 469.648 1597.29 486.156C1599.83 473.829 1615.06 467.431 1626.9 471.256C1638.73 475.08 1646.95 486.282 1651.27 498.088C1655.6 509.884 1656.81 522.58 1659.47 534.871C1662.13 547.163 1666.64 559.679 1675.91 568.056C1685.18 576.424 1700.28 579.195 1710.05 571.421C1711.47 575.529 1711.91 579.918 1711.35 584.233C1710.78 588.548 1709.22 592.666 1706.79 596.256Z" fill="#2F2E41"/>
<path d="M2111.88 696.101L2105.84 726.833C2105.38 729.183 2104.9 731.574 2104.39 733.945C2099.33 732.884 2094.1 733.18 2089.19 734.805C2093.08 740.439 2096.57 746.349 2099.63 752.489C2095.82 764.384 2090.23 775.376 2080.87 783.327C2074.62 788.518 2067.16 791.991 2059.2 793.409C2051.24 794.828 2043.05 794.144 2035.43 791.424L2035.7 790.207C2025.64 770.425 2031.1 745.483 2043.61 727.211C2049.98 718.197 2057.54 710.102 2066.07 703.149C2074.51 696.017 2083.64 689.619 2092.69 683.304C2094.72 681.889 2097.12 681.119 2099.59 681.093C2102.06 681.068 2104.47 681.788 2106.53 683.161C2108.59 684.535 2110.2 686.5 2111.16 688.805C2112.11 691.109 2112.36 693.65 2111.88 696.101Z" fill="#00BFA5"/>
<path d="M2037.58 865.37C2035.04 846.589 2032.42 827.569 2034.2 808.586C2035.79 791.728 2040.86 775.262 2051.2 761.761C2056.68 754.608 2063.36 748.48 2070.92 743.651C2072.89 742.392 2074.71 745.558 2072.75 746.812C2059.66 755.193 2049.54 767.568 2043.84 782.154C2037.55 798.374 2036.54 816.056 2037.63 833.285C2038.28 843.705 2039.67 854.053 2041.08 864.395C2041.19 864.863 2041.12 865.357 2040.89 865.776C2040.65 866.195 2040.27 866.507 2039.81 866.648C2039.35 866.774 2038.86 866.711 2038.44 866.471C2038.02 866.232 2037.72 865.835 2037.59 865.368L2037.58 865.37Z" fill="#00A38B"/>
<path d="M2181.54 1174.36L248.465 1175C247.813 1175 247.187 1174.73 246.727 1174.27C246.266 1173.8 246.007 1173.16 246.007 1172.5C246.007 1171.84 246.266 1171.21 246.727 1170.74C247.187 1170.27 247.813 1170.01 248.465 1170L2181.54 1169.36C2182.19 1169.36 2182.81 1169.63 2183.27 1170.09C2183.73 1170.56 2183.99 1171.2 2183.99 1171.86C2183.99 1172.52 2183.73 1173.15 2183.27 1173.62C2182.81 1174.09 2182.19 1174.35 2181.54 1174.36Z" fill="#CACACA"/>
<path d="M460.475 507.053C455.732 509.36 450.422 505.89 446.327 502.451L447.792 503.733C440.554 510.868 437.171 521.134 435.517 531.239C433.862 541.334 433.678 551.658 431.594 561.681C429.508 571.694 425.182 581.754 417.102 587.886C406.277 596.1 391.346 595.573 378.062 593.055C377.885 593.019 377.72 592.991 377.543 592.955C381.117 582.497 382.57 571.415 381.815 560.374C378.254 571.438 372.192 581.507 364.112 589.777C355.304 587.321 346.706 584.147 338.404 580.285C333.032 577.779 327.248 574.354 325.757 568.553C324.262 562.796 327.733 556.757 332.374 553.122C337.015 549.487 342.712 547.59 347.999 545C353.278 542.423 358.501 538.747 360.615 533.199C365.49 520.436 351.603 505.791 357.015 493.245C359.683 487.076 366.22 483.72 372.365 481.133C381.744 477.194 391.376 473.902 401.194 471.279C409.813 468.975 418.812 467.185 427.592 468.695C436.372 470.206 444.973 475.617 448.133 484.066C453.406 485.872 459.003 487.907 462.387 492.404C465.769 496.891 465.497 504.615 460.475 507.053Z" fill="#2F2E41"/>
<path d="M502.679 492.264C489.11 481.409 478.139 483.262 469.675 490.006C468.252 488.402 462.197 492.815 460.147 492.18L452.732 506.286C448.916 513.109 447.35 520.074 447.967 523.994C440.948 543.939 457.593 557.408 477.276 564.52C485.131 567.378 493.7 567.504 501.633 564.878L501.875 561.479L503.365 564.265C503.365 564.265 521.36 601.809 525.612 603.495C523.032 596.713 516.227 564.48 514.327 557.761C511.723 548.619 513.502 534.095 515.033 525.19C515.987 519.7 516.037 514.088 515.18 508.582L515.143 508.341L519.353 516.953L528.799 510.934C525.189 500.279 525.117 487.532 502.679 492.264Z" fill="#2F2E41"/>
<defs>
<linearGradient id="paint0_linear_2_3" x1="1164.01" y1="0.985321" x2="1164.01" y2="1400.2" gradientUnits="userSpaceOnUse">
<stop stop-color="#0091EA"/>
<stop offset="1" stop-color="#0091EA" stop-opacity="0"/>
</linearGradient>
</defs>
</svg>
