<svg width="1000" height="971" viewBox="0 0 1000 971" fill="none" xmlns="http://www.w3.org/2000/svg">
<g clip-path="url(#clip0_11_149)">
<path d="M1000 0H0V971H1000V0Z" fill="white"/>
<g clip-path="url(#clip1_11_149)">
<g clip-path="url(#clip2_11_149)">
<g clip-path="url(#clip3_11_149)">
<g clip-path="url(#clip4_11_149)">
<g clip-path="url(#clip5_11_149)">
<g clip-path="url(#clip6_11_149)">
<g clip-path="url(#clip7_11_149)">
<g clip-path="url(#clip8_11_149)">
<path d="M488.338 501.941C420.243 501.941 364.991 567.546 364.991 648.376C364.991 675.369 383.388 697.19 406.111 697.19H570.565C593.294 697.19 611.685 675.363 611.685 648.376C611.691 567.546 556.445 501.941 488.338 501.941Z" fill="#0091EA"/>
<path d="M633.143 346.224L523.598 275.844C522.187 274.925 520.427 274.599 518.753 274.949L397.416 299.818C394.973 300.316 393.048 302.167 392.498 304.551L391.771 307.736C391.197 310.245 392.272 312.837 394.49 314.26L445.288 346.9L443.216 355.992C424.862 369.349 412.93 390.571 412.93 414.539C412.93 454.966 446.711 487.765 488.338 487.765C529.971 487.765 563.759 454.972 563.759 414.539C563.759 405.856 562.115 397.558 559.256 389.83C560.386 388.43 561.162 386.935 561.523 385.352L564.052 374.225L596.826 367.505C600.901 373.098 603.565 379.889 604.231 388.543C600.901 390.215 598.598 393.549 598.598 397.439C598.598 400.708 600.229 403.572 602.716 405.411C599.899 419.361 596.142 444.99 603.632 456.354C605.838 459.693 608.966 461.834 612.669 462.516C612.962 462.57 613.255 462.599 613.549 462.599C615.724 462.599 617.667 461.099 618.094 458.94C618.571 456.502 616.921 454.142 614.404 453.679C613.591 453.531 612.522 453.145 611.441 451.502C608.795 447.493 608.178 439.581 608.667 430.648C610.952 437.576 614.465 443.809 619.885 447.273C622.035 448.649 624.901 448.062 626.306 445.986C627.711 443.91 627.119 441.123 624.98 439.753C617.697 435.097 614.624 419.13 613.964 406.182C617.141 404.468 619.31 401.218 619.31 397.439C619.31 393.483 616.934 390.097 613.512 388.46C612.901 379.237 610.433 371.734 606.62 365.5L630.21 360.66C632.66 360.162 634.585 358.311 635.129 355.933L635.856 352.748C636.43 350.239 635.355 347.635 633.143 346.224ZM507.56 321.876C507.664 321.064 508.513 320.399 510.096 320.073C513.248 319.432 518.118 320.393 520.971 322.22C522.395 323.134 523.049 324.094 522.939 324.913L522.474 327.143C522.364 327.956 521.521 328.614 519.945 328.94C516.78 329.587 511.922 328.626 509.069 326.799C507.645 325.88 506.992 324.919 507.096 324.106L507.56 321.876Z" fill="#0091EA"/>
</g>
</g>
<path d="M143.022 362.535L137.425 379.773L65.8198 357.863L62.5069 368.064L45.4742 362.852L57.6974 325.21L74.73 330.42L71.4171 340.624L143.022 362.535Z" fill="#00BFA5"/>
<path d="M203.353 254.996L133.093 195.162L145.943 180.944L162.534 195.072C159.521 189.904 159.897 185.239 163.661 181.076C167.178 177.184 171.114 175.322 175.469 175.485C179.823 175.652 184.231 177.632 188.688 181.428L234.547 220.484L222.047 234.314L177.061 196C175.762 194.896 174.444 194.285 173.105 194.173C171.764 194.061 170.6 194.554 169.608 195.652C168.747 196.605 168.494 197.716 168.843 198.989C169.179 200.247 169.944 201.386 171.144 202.404L216.203 240.781L203.353 254.996Z" fill="#00BFA5"/>
<path d="M350.519 146.637C343.072 149.834 336.826 150.141 331.779 147.562C326.755 144.973 322.447 139.741 318.86 131.866L306.001 103.636C303.047 97.1524 302.714 91.402 305.002 86.378C307.28 81.338 311.849 77.3444 318.708 74.4004C332.613 68.4324 342.585 72.0804 348.624 85.3412L350.931 90.41C353.265 95.5364 355.104 99.7284 356.439 102.983L331.304 113.77L337.518 127.415C338.629 129.85 339.759 131.642 340.913 132.794C342.067 133.943 343.501 134.148 345.222 133.408C346.537 132.845 347.305 132.058 347.519 131.05C347.717 130.048 347.638 129.028 347.285 127.978C346.939 126.951 346.326 125.476 345.449 123.552L342.347 116.746L359.561 109.357L361.387 113.367C365.129 121.578 366.25 128.32 364.753 133.588C363.256 138.855 358.513 143.207 350.519 146.637ZM327.414 105.469L335.613 101.952L331.492 92.906C329.191 87.8564 326.758 85.8852 324.187 86.986C321.293 88.2276 320.996 91.3732 323.294 96.4228L327.414 105.469Z" fill="#00BFA5"/>
<path d="M508.243 116.544C492.602 116.311 484.901 108.493 485.149 93.0917L485.343 87.0053L504.294 87.2901L504.251 96.3109C504.222 98.1381 504.555 99.5268 505.247 100.484C505.962 101.44 507.149 101.93 508.807 101.956C511.329 101.994 512.621 100.016 512.687 96.0197C512.733 93.0757 512.173 90.7589 511.006 89.0661C509.859 87.3733 507.996 85.5621 505.415 83.6325L495.48 75.9109C492.068 73.2805 489.622 70.5701 488.142 67.7765C486.681 64.9829 485.992 61.0629 486.072 56.0165C486.134 52.1061 487.248 48.7845 489.417 46.0453C491.587 43.3061 494.451 41.2645 498.011 39.9205C501.552 38.5765 505.491 37.9397 509.826 38.0037C525.18 38.2341 532.739 45.7701 532.505 60.6117L532.482 62.0932L512.901 61.7988L512.947 58.8357C512.977 57.0309 512.703 55.4693 512.127 54.1509C511.527 52.8517 510.508 52.1925 509.071 52.1733C507.765 52.1541 506.763 52.5029 506.064 53.2229C505.366 53.9429 505.01 54.9349 504.99 56.2021C504.944 58.9957 506.028 61.1813 508.237 62.7621L519.787 71.2485C523.921 74.3173 527.076 77.6325 529.255 81.1877C531.434 84.7653 532.479 89.2485 532.393 94.6405C532.278 101.792 530.102 107.258 525.856 111.04C521.614 114.823 515.743 116.656 508.243 116.544Z" fill="#00BFA5"/>
<path d="M696.72 75.2197L679.361 67.9109L684.606 56.1765L701.961 63.4821L696.72 75.2197ZM663.093 150.477L645.734 143.169L677.248 72.6405L694.607 79.9493L663.093 150.477Z" fill="#00BFA5"/>
<path d="M776.431 233.018C770.467 226.932 767.761 221.069 768.315 215.431C768.882 209.808 772.452 203.962 779.028 197.892L796.753 181.527C801.724 176.938 806.267 173.722 810.384 171.876C814.518 170.045 818.566 169.642 822.528 170.666C826.51 171.674 830.641 174.365 834.926 178.74C839.594 183.501 842.106 188.56 842.471 193.92C842.867 199.277 840.761 204.08 836.159 208.33L827.38 216.432L814.116 202.893L822.172 195.453C823.695 194.048 824.661 192.756 825.063 191.581C825.468 190.436 825.099 189.28 823.955 188.112C821.819 185.933 819.159 186.317 815.968 189.264L788.143 214.957C786.844 216.157 785.997 217.444 785.601 218.816C785.206 220.221 785.526 221.45 786.564 222.506C787.616 223.581 788.852 223.968 790.266 223.668C791.667 223.383 793.048 222.567 794.413 221.216L803.989 212.244L817.257 225.783L807.229 235.044C802.532 239.38 797.38 241.306 791.772 240.82C786.165 240.333 781.052 237.732 776.431 233.018Z" fill="#00BFA5"/>
<path d="M858.377 367.258C853.284 352.762 858.486 342.951 873.982 337.818L904.078 327.853C911.179 325.501 917.511 325.562 923.076 328.029C928.63 330.525 932.593 335.149 934.963 341.898C937.343 348.669 937.119 354.689 934.297 359.959C931.445 365.217 926.468 369.018 919.367 371.37L889.274 381.335C873.778 386.468 863.476 381.773 858.377 367.258ZM872.199 362.682C872.693 364.084 873.567 364.941 874.819 365.252C876.082 365.581 877.602 365.453 879.382 364.865L916.012 352.737C920.389 351.287 922.1 349.201 921.141 346.477C920.191 343.773 917.528 343.146 913.15 344.593L876.524 356.724C874.744 357.313 873.455 358.103 872.657 359.092C871.866 360.103 871.714 361.3 872.199 362.682Z" fill="#00BFA5"/>
<path d="M66.034 632.685L60.1104 614.599L135.328 591.383L131.808 580.634L149.678 575.117L162.633 614.666L144.763 620.183L141.252 609.466L66.034 632.685Z" fill="#00BFA5"/>
<path d="M141.98 766.711L215.751 703.722L229.276 718.65L211.855 733.524C217.812 731.185 222.759 732.193 226.709 736.548C230.42 740.644 231.887 744.884 231.113 749.265C230.338 753.645 227.615 757.828 222.947 761.815L174.796 802.929L161.667 788.436L208.895 748.113C210.256 746.948 211.084 745.7 211.377 744.362C211.687 743.012 211.314 741.754 210.259 740.593C209.369 739.61 208.219 739.204 206.815 739.377C205.391 739.562 204.056 740.186 202.809 741.249L155.506 781.639L141.98 766.711Z" fill="#00BFA5"/>
<path d="M317.552 897.293C309.716 893.94 305.042 889.453 303.532 883.831C302.022 878.209 303.149 871.249 306.917 862.954L320.396 833.265C323.485 826.465 327.856 822.135 333.51 820.282C339.153 818.449 345.581 819.073 352.787 822.157C367.427 828.42 371.583 838.519 365.254 852.458L362.831 857.796C360.379 863.201 358.315 867.553 356.65 870.852L330.226 859.546L323.719 873.876C322.549 876.452 321.913 878.573 321.811 880.244C321.718 881.94 322.572 883.175 324.372 883.943C325.75 884.532 326.913 884.548 327.866 883.997C328.839 883.45 329.613 882.679 330.19 881.681C330.774 880.663 331.519 879.153 332.428 877.146L335.695 869.949L353.796 877.697L351.871 881.94C347.955 890.57 343.349 896.18 338.059 898.778C332.791 901.383 325.954 900.887 317.552 897.293ZM334.093 850.711L342.749 854.413L347.061 844.919C349.481 839.591 349.332 836.349 346.619 835.188C343.56 833.879 340.824 835.889 338.405 841.217L334.093 850.711Z" fill="#00BFA5"/>
<path d="M510.017 933.994C493.558 934.253 485.191 926.298 484.918 910.125L484.941 903.712L504.822 903.399L505.115 912.9C505.148 914.81 505.547 916.256 506.315 917.232C507.083 918.208 508.342 918.682 510.089 918.653C512.743 918.612 514.035 916.496 513.966 912.308C513.913 909.216 513.244 906.797 511.952 905.06C510.683 903.319 508.662 901.469 505.883 899.514L495.199 891.725C491.504 889.076 488.834 886.304 487.192 883.408C485.551 880.535 484.687 876.445 484.595 871.14C484.526 867.015 485.584 863.485 487.769 860.551C489.978 857.616 492.915 855.376 496.587 853.837C500.279 852.317 504.403 851.524 508.962 851.45C525.114 851.194 533.319 858.864 533.58 874.458L533.606 876.004L512.997 876.33L512.947 873.236C512.914 871.325 512.568 869.696 511.902 868.356C511.236 866.992 510.152 866.32 508.649 866.343C507.277 866.365 506.232 866.768 505.514 867.552C504.818 868.336 504.482 869.396 504.505 870.727C504.555 873.668 505.764 875.927 508.138 877.501L520.562 886.039C525.019 889.127 528.45 892.509 530.857 896.186C533.263 899.866 534.516 904.538 534.611 910.212C534.737 917.728 532.643 923.54 528.332 927.645C523.997 931.754 517.895 933.869 510.017 933.994Z" fill="#00BFA5"/>
<path d="M660.232 812.778L641.95 820.445L636.448 808.08L654.73 800.413L660.232 812.778ZM695.457 891.927L677.175 899.594L644.162 825.411L662.444 817.744L695.457 891.927Z" fill="#00BFA5"/>
<path d="M835.684 793.427C829.395 799.805 823.187 802.851 817.059 802.57C810.935 802.288 804.427 798.947 797.538 792.544L778.959 775.274C773.764 770.445 770.082 765.965 767.91 761.831C765.721 757.715 765.075 753.603 765.968 749.498C766.878 745.408 769.591 741.072 774.104 736.496C779.032 731.501 784.382 728.685 790.16 728.048C795.919 727.395 801.213 729.312 806.039 733.799L815.246 742.355L801.243 756.551L792.781 748.685C791.182 747.2 789.755 746.272 788.492 745.904C787.217 745.552 785.984 745.981 784.787 747.187C782.523 749.485 783.06 752.183 786.403 755.29L815.553 782.387C816.927 783.664 818.368 784.471 819.878 784.803C821.388 785.136 822.693 784.743 823.797 783.626C824.898 782.509 825.261 781.239 824.885 779.821C824.509 778.4 823.553 777.024 822.024 775.69L811.838 766.4L825.841 752.205L836.343 761.965C841.281 766.557 843.629 771.709 843.378 777.427C843.114 783.162 840.55 788.493 835.684 793.427Z" fill="#00BFA5"/>
<path d="M936.473 630.109C931.05 645.357 920.215 650.26 903.96 644.813L872.334 634.218C864.887 631.722 859.682 627.696 856.722 622.135C853.775 616.602 853.564 610.282 856.089 603.175C858.608 596.09 862.791 591.242 868.632 588.631C874.49 586.048 881.142 586.004 888.589 588.5L920.215 599.098C936.466 604.544 941.885 614.88 936.473 630.109ZM921.975 625.252C922.496 623.789 922.334 622.532 921.494 621.476C920.673 620.429 919.331 619.591 917.469 618.97L878.97 606.071C874.388 604.535 871.592 605.191 870.583 608.032C869.565 610.896 871.348 613.095 875.927 614.628L914.426 627.527C916.288 628.151 917.874 628.295 919.186 627.965C920.528 627.62 921.457 626.714 921.975 625.252Z" fill="#00BFA5"/>
<path d="M44.9698 484.983C44.9698 464.977 61.6762 448.759 82.2821 448.762C102.891 448.762 119.598 464.98 119.598 484.983C119.598 504.989 102.891 521.207 82.2821 521.207C61.6729 521.207 44.9666 504.989 44.9698 484.983Z" fill="#FF8C42"/>
<path d="M881.402 484.983C881.402 464.977 898.109 448.759 918.718 448.762C939.327 448.762 956.033 464.98 956.03 484.983C956.03 504.989 939.324 521.207 918.718 521.207C898.109 521.207 881.402 504.989 881.402 484.983Z" fill="#FF8C42"/>
</g>
</g>
</g>
</g>
</g>
</g>
</g>
<defs>
<clipPath id="clip0_11_149">
<rect width="1000" height="971" fill="white"/>
</clipPath>
<clipPath id="clip1_11_149">
<rect width="923" height="896" fill="white" transform="translate(39 38)"/>
</clipPath>
<clipPath id="clip2_11_149">
<rect width="923" height="896" fill="white" transform="translate(39 38.0007)"/>
</clipPath>
<clipPath id="clip3_11_149">
<rect width="923" height="896" fill="white" transform="translate(39 38.0007)"/>
</clipPath>
<clipPath id="clip4_11_149">
<rect width="923" height="896" fill="white" transform="translate(39 38.0007)"/>
</clipPath>
<clipPath id="clip5_11_149">
<rect width="923" height="896" fill="white" transform="translate(39 38.0007)"/>
</clipPath>
<clipPath id="clip6_11_149">
<rect width="923" height="896" fill="white" transform="translate(39 38.0007)"/>
</clipPath>
<clipPath id="clip7_11_149">
<rect width="271.018" height="422.378" fill="white" transform="translate(364.991 274.811)"/>
</clipPath>
<clipPath id="clip8_11_149">
<rect width="271.018" height="422.378" fill="white" transform="translate(364.991 274.811)"/>
</clipPath>
</defs>
</svg>
