<svg width="900" height="900" viewBox="0 0 900 900" fill="none" xmlns="http://www.w3.org/2000/svg">
<path d="M900 0H0V900H900V0Z" fill="white"/>
<g clip-path="url(#clip0_6_39)">
<g clip-path="url(#clip1_6_39)">
<g clip-path="url(#clip2_6_39)">
<g clip-path="url(#clip3_6_39)">
<g clip-path="url(#clip4_6_39)">
<g clip-path="url(#clip5_6_39)">
<g clip-path="url(#clip6_6_39)">
<path d="M89.2367 659.786V524.842H49.3123V503.394H153.302V524.842H113.377V659.786H89.2367ZM171.871 659.786V503.394H196.244V566.845H264.487V503.394H288.859V659.786H264.487V589.857H196.244V659.786H171.871ZM319.452 659.786V503.394H408.401V524.842H343.825V567.292H394.241V588.74H343.825V638.338H410.211V659.786H319.452ZM471.723 662.914C463.831 662.914 455.753 662.065 447.489 660.367C439.195 658.639 432.262 656.435 426.691 653.754L429.709 627.838C444.41 636.178 459.111 640.349 473.812 640.349C482.477 640.349 489.255 638.666 494.145 635.3C499.004 631.963 501.434 627.093 501.434 620.688C501.434 613.837 498.927 608.251 493.913 603.932C488.868 599.613 480.001 594.772 467.312 589.41C457.563 585.239 449.749 581.218 443.868 577.345C437.988 573.473 433.423 568.781 430.173 563.27C426.924 557.759 425.299 551.057 425.299 543.163C425.299 534.673 427.543 527.181 432.03 520.687C436.518 514.223 442.831 509.203 450.971 505.628C459.08 502.054 468.55 500.266 479.382 500.266C494.083 500.266 507.778 503.171 520.468 508.98L517.914 533.779C504.142 526.481 490.679 522.832 477.526 522.832C469.324 522.832 462.979 524.396 458.492 527.523C454.004 530.651 451.76 535.492 451.76 542.045C451.76 546.663 453.076 550.535 455.706 553.663C458.337 556.791 461.819 559.502 466.152 561.795C470.485 564.119 477.448 567.44 487.042 571.76C501.124 578.165 511.415 584.897 517.914 591.957C524.414 599.047 527.663 608.028 527.663 618.901C527.663 632.455 522.711 643.179 512.808 651.073C502.904 658.967 489.209 662.914 471.723 662.914ZM549.25 659.786V503.394H573.623V659.786H549.25ZM669.488 662.914C655.097 662.914 642.407 659.593 631.42 652.95C620.434 646.336 611.845 636.878 605.655 624.576C599.465 612.303 596.371 597.974 596.371 581.59C596.371 565.355 599.496 551.057 605.748 538.694C612.031 526.332 620.697 516.829 631.745 510.186C642.825 503.573 655.329 500.266 669.256 500.266C682.1 500.266 694.015 502.575 705.002 507.192L702.217 529.981C697.265 527.598 692.499 525.81 687.918 524.619C683.369 523.427 678.463 522.832 673.202 522.832C657.418 522.832 645.146 528.223 636.388 539.007C627.66 549.82 623.296 564.015 623.296 581.59C623.296 599.166 627.66 613.345 636.388 624.129C645.146 634.942 657.418 640.349 673.202 640.349C682.796 640.349 692.468 638.115 702.217 633.646L705.002 656.211C694.944 660.68 683.106 662.914 669.488 662.914ZM783.923 662.914C770.615 662.914 758.73 659.563 748.269 652.86C737.839 646.158 729.684 636.655 723.804 624.352C717.924 612.079 714.983 597.825 714.983 581.59C714.983 565.355 717.924 551.086 723.804 538.784C729.684 526.511 737.839 517.023 748.269 510.32C758.73 503.618 770.615 500.266 783.923 500.266C797.231 500.266 809.069 503.618 819.437 510.32C829.805 517.023 837.929 526.511 843.809 538.784C849.69 551.086 852.63 565.355 852.63 581.59C852.63 597.825 849.69 612.079 843.809 624.352C837.929 636.655 829.805 646.158 819.437 652.86C809.069 659.563 797.231 662.914 783.923 662.914ZM783.923 639.455C797.695 639.455 808.295 634.093 815.723 623.369C823.151 612.645 826.865 598.719 826.865 581.59C826.865 564.462 823.151 550.535 815.723 539.811C808.295 529.087 797.695 523.725 783.923 523.725C770.15 523.725 759.55 529.087 752.122 539.811C744.695 550.535 740.981 564.462 740.981 581.59C740.981 598.719 744.695 612.645 752.122 623.369C759.55 634.093 770.15 639.455 783.923 639.455Z" fill="#00BFA5"/>
</g>
</g>
</g>
</g>
<g clip-path="url(#clip7_6_39)">
<g clip-path="url(#clip8_6_39)">
<path d="M538.252 377.379C518.945 377.379 499.385 387.133 499.385 405.764C499.385 416.846 504.039 423.318 507.955 426.807C516.584 434.494 527.982 433.905 529.274 433.793C534.57 433.41 538.476 428.995 538.155 423.898C537.834 418.792 533.17 414.658 527.923 415.125C527.923 415.097 523.541 415.275 521.102 413.021C519.586 411.637 518.819 409.196 518.819 405.764C518.819 399.974 528.866 396.084 538.252 396.084C552.06 396.084 557.686 401.499 557.686 414.789C557.686 441.808 530.867 443.174 525.494 443.174C519.577 443.174 490.018 441.378 490.018 405.764C490.018 370.43 549.271 358.608 549.874 358.486C553.925 357.71 557.025 354.54 557.598 350.602C558.172 346.665 556.083 342.802 552.41 340.988L446.895 289.016C445.933 288.324 444.99 287.65 443.999 286.902L389.284 239.494C387.496 237.942 385.183 237.091 382.783 237.091C354.867 237.091 324.822 253.448 324.822 289.352C324.822 321.114 347.035 339.248 347.987 340.006C348.356 340.296 348.745 340.567 349.143 340.801L388.448 363.827C386.194 405.193 338.018 404.426 325.969 404.903C325.969 404.903 346.879 416.65 365.72 415.808C358.268 428.883 334.199 442.846 334.199 442.846C360.823 442.846 420.067 437.422 420.611 389.107L423.098 391.304C423.613 391.791 424.099 392.221 424.614 392.717C424.604 392.679 424.604 392.651 424.595 392.614L482.536 443.688C483.09 444.174 483.673 444.586 484.285 444.923C496.188 457.679 513.338 461.869 525.494 461.869C544.665 461.879 577.12 451.965 577.12 414.789C577.12 391.361 562.593 377.379 538.252 377.379ZM344.256 289.352C344.256 261.557 369.374 256.768 379.236 255.955L417.909 289.455C394.298 301.904 388.137 324.359 387.175 341.184L359.987 325.257C357.286 322.853 344.256 310.181 344.256 289.352ZM470.575 405.764C470.575 406.446 470.584 407.129 470.604 407.812L419.96 363.163C419.658 333.964 434.885 318.776 448.945 311.032L522.356 347.207C500.191 355.802 470.575 373.348 470.575 405.764Z" fill="#0091EA"/>
</g>
</g>
</g>
</g>
</g>
<path d="M145.722 198.695C183.432 156.261 230.244 122.193 282.938 98.8346C335.632 75.4758 392.957 63.3805 450.971 63.3805C508.985 63.3805 566.311 75.4758 619.005 98.8346C671.699 122.193 718.51 156.261 756.22 198.695H740.98C704.714 159.06 660.094 127.313 610.09 105.566C560.086 83.8193 505.843 72.5719 450.971 72.5719C396.099 72.5719 341.857 83.8193 291.852 105.566C241.848 127.313 197.228 159.06 160.962 198.695H145.722ZM145.722 701.31C183.432 743.743 230.244 777.811 282.938 801.17C335.632 824.529 392.957 836.624 450.971 836.624C508.985 836.624 566.311 824.529 619.005 801.17C671.699 777.811 718.51 743.743 756.22 701.31H740.98C704.714 740.945 660.094 772.692 610.09 794.438C560.086 816.185 505.843 827.432 450.971 827.432C396.099 827.432 341.857 816.185 291.852 794.438C241.848 772.692 197.228 740.945 160.962 701.31H145.722Z" fill="#00BFA5"/>
<defs>
<clipPath id="clip0_6_39">
<rect width="803.364" height="425.824" fill="white" transform="translate(49.2889 237.09)"/>
</clipPath>
<clipPath id="clip1_6_39">
<rect width="803.364" height="425.824" fill="white" transform="translate(49.2889 237.09)"/>
</clipPath>
<clipPath id="clip2_6_39">
<rect width="803.364" height="425.824" fill="white" transform="translate(49.2889 237.09)"/>
</clipPath>
<clipPath id="clip3_6_39">
<rect width="803.364" height="162.648" fill="white" transform="translate(49.2889 500.266)"/>
</clipPath>
<clipPath id="clip4_6_39">
<rect width="803.364" height="162.648" fill="white" transform="translate(49.2889 500.266)"/>
</clipPath>
<clipPath id="clip5_6_39">
<rect width="803.364" height="162.648" fill="white" transform="translate(49.2889 500.266)"/>
</clipPath>
<clipPath id="clip6_6_39">
<rect width="803.364" height="162.648" fill="white" transform="translate(49.2889 500.266)"/>
</clipPath>
<clipPath id="clip7_6_39">
<rect width="252.297" height="224.779" fill="white" transform="translate(324.822 237.091)"/>
</clipPath>
<clipPath id="clip8_6_39">
<rect width="252.297" height="224.779" fill="white" transform="translate(324.822 237.091)"/>
</clipPath>
</defs>
</svg>
