<svg width="557" height="363" viewBox="0 0 557 363" fill="none" xmlns="http://www.w3.org/2000/svg">
<path d="M243.635 134.735C251.586 160.785 279.016 175.493 304.896 167.593C330.777 159.693 345.317 132.175 337.366 106.125C329.414 80.0744 301.985 65.367 276.104 73.2666C250.224 81.1662 235.683 108.685 243.635 134.735Z" fill="#00BFA5" stroke="#FFFCFC"/>
<path d="M476.695 113.04C476.669 113.073 476.642 113.105 476.615 113.138C417.486 185.624 342.958 195.1 262.5 172.974C223.834 162.341 183.799 144.41 143.445 122.666C143.445 122.666 195.758 197.784 111.129 253.822C26.4997 309.86 23.0571 361.95 23.0571 361.95C42.3187 273.992 423.927 295.01 474.535 121.467C475.327 118.752 476.037 115.99 476.664 113.179C476.675 113.132 476.685 113.086 476.695 113.04Z" fill="#00BFA5"/>
<path d="M485.352 120.325C480.41 131.15 492.638 159.245 492.638 159.245C492.638 159.245 483.985 160.719 482.906 168.465C482.451 171.729 480.655 167.358 479.222 159.322C482.099 155.542 487.067 154.695 487.067 154.695C487.067 154.695 477.931 133.705 478.645 121.021C478.958 119.237 479.335 117.484 479.781 115.776C481.797 117.444 483.285 118.662 485.352 120.325Z" fill="#FF8C42"/>
<path d="M474.535 121.467C475.327 118.752 476.037 115.99 476.664 113.179C477.703 114.051 478.742 114.916 479.781 115.776C479.111 117.244 478.757 119.03 478.645 121.021C477.931 133.705 487.067 154.695 487.067 154.695C487.067 154.695 482.099 155.542 479.222 159.322C478.302 160.531 477.596 162.039 477.335 163.916C476.364 170.887 470.831 145.064 474.535 121.467Z" fill="#FF8C42"/>
<path d="M539.984 132.814C532.328 126.572 519.899 138.945 522.807 148.473C507.885 137.808 496.158 129.017 485.352 120.325C487.415 111.487 486.728 105.597 502.317 103.608C514.939 112.732 526.511 121.718 539.984 132.814Z" fill="#FFFCFC"/>
<path d="M476.695 113.04C476.669 113.073 476.642 113.105 476.615 113.138C465.103 103.475 453.517 93.0061 439.724 80.0892C442.701 72.8142 444.723 69.3236 452.18 69.5167C466.289 78.7758 480.889 89.4322 491.301 96.6355C490.345 96.9275 478.808 98.8865 476.695 113.04Z" fill="#FFF9F9"/>
<path d="M522.807 148.473C519.899 138.945 532.328 126.572 539.984 132.814C541.584 138.055 538.905 141.298 536.485 143.616C531.422 148.467 522.807 148.473 522.807 148.473Z" fill="#F1EFEF"/>
<path d="M502.317 103.608C486.728 105.597 487.415 111.487 485.352 120.325C483.285 118.662 481.797 117.444 479.781 115.776C478.742 114.916 477.703 114.051 476.664 113.179L476.695 113.04C478.808 98.8865 490.345 96.9275 491.301 96.6355C496.188 100.016 497.829 100.364 502.317 103.608Z" fill="#FF8C42"/>
<path d="M476.695 113.04C478.808 98.8865 490.345 96.9275 491.301 96.6355M476.695 113.04C476.685 113.086 476.675 113.132 476.664 113.179M476.695 113.04C476.669 113.073 476.642 113.105 476.615 113.138M476.695 113.04L476.664 113.179M539.984 132.814C532.328 126.572 519.899 138.945 522.807 148.473M539.984 132.814C526.511 121.718 514.939 112.732 502.317 103.608M539.984 132.814C541.584 138.055 538.905 141.298 536.485 143.616C531.422 148.467 522.807 148.473 522.807 148.473M522.807 148.473C507.885 137.808 496.158 129.017 485.352 120.325M502.317 103.608C486.728 105.597 487.415 111.487 485.352 120.325M502.317 103.608C497.829 100.364 496.188 100.016 491.301 96.6355M485.352 120.325C480.41 131.15 492.638 159.245 492.638 159.245C492.638 159.245 483.985 160.719 482.906 168.465C482.451 171.729 480.655 167.358 479.222 159.322M485.352 120.325C483.285 118.662 481.797 117.444 479.781 115.776M491.301 96.6355C480.889 89.4322 466.289 78.7758 452.18 69.5167C444.723 69.3236 442.701 72.8142 439.724 80.0892C453.517 93.0061 465.103 103.475 476.615 113.138M479.781 115.776C478.742 114.916 477.703 114.051 476.664 113.179M479.781 115.776C479.111 117.244 478.757 119.03 478.645 121.021M479.781 115.776C479.335 117.484 478.958 119.237 478.645 121.021M476.131 113.73C475.472 116.249 474.947 118.845 474.535 121.467M474.535 121.467C475.327 118.752 476.037 115.99 476.664 113.179M474.535 121.467C470.831 145.064 476.364 170.887 477.335 163.916C477.596 162.039 478.302 160.531 479.222 159.322M474.535 121.467C423.927 295.01 42.3187 273.992 23.0571 361.95C23.0571 361.95 26.4997 309.86 111.129 253.822C195.758 197.784 143.445 122.666 143.445 122.666C183.799 144.41 223.834 162.341 262.5 172.974C342.958 195.1 417.486 185.624 476.615 113.138M476.664 113.179C476.648 113.165 476.632 113.151 476.615 113.138M478.645 121.021C477.931 133.705 487.067 154.695 487.067 154.695C487.067 154.695 482.099 155.542 479.222 159.322" stroke="white"/>
<path d="M351.243 65.9536L341.776 94.8833C308.157 92.4623 289.973 87.6612 258.536 73.9401L268.101 52.1847L269.644 48.6757L351.243 65.9536Z" fill="#0091EA"/>
<path d="M351.243 65.9536C351.243 65.9536 345.473 83.5856 341.776 94.8833M351.243 65.9536L269.644 48.6757L268.101 52.1847L258.536 73.9401C289.973 87.6612 308.157 92.4623 341.776 94.8833M351.243 65.9536L341.776 94.8833" stroke="#F5F5F5"/>
<path d="M391.074 78.2732L295.168 75.7785L228.064 42.6185L315.634 43.4915L391.074 78.2732Z" fill="#0091EA" stroke="#F1EFEF"/>
<path d="M131.531 269.318L128.59 271.862C128.36 272.061 128.144 272.163 127.942 272.17C127.74 272.155 127.528 272.044 127.306 271.836L118.707 263.779L116.039 266.087C115.809 266.285 115.593 266.388 115.39 266.395C115.189 266.38 114.977 266.269 114.755 266.061L112.636 264.075C112.414 263.868 112.305 263.678 112.308 263.507C112.312 263.314 112.429 263.118 112.659 262.919L122.243 254.63C122.473 254.431 122.689 254.339 122.891 254.353C123.093 254.347 123.305 254.447 123.527 254.655L125.646 256.641C125.868 256.849 125.977 257.049 125.973 257.242C125.97 257.413 125.853 257.598 125.623 257.797L122.955 260.105L131.554 268.162C131.775 268.37 131.884 268.57 131.881 268.763C131.877 268.934 131.76 269.119 131.531 269.318Z" fill="#FFF9F9"/>
<path d="M140.826 260.325L138.221 262.981C138.009 263.198 137.803 263.317 137.605 263.336C137.406 263.334 137.19 263.235 136.959 263.038L125.125 252.946C124.894 252.749 124.775 252.563 124.767 252.389C124.758 252.193 124.86 251.986 125.073 251.769L127.677 249.113C127.89 248.896 128.096 248.788 128.296 248.79C128.494 248.771 128.709 248.859 128.94 249.057L132.903 252.436L135.709 249.574L131.746 246.195C131.515 245.998 131.395 245.812 131.387 245.637C131.379 245.441 131.481 245.234 131.694 245.017L134.298 242.361C134.511 242.144 134.717 242.037 134.916 242.039C135.114 242.019 135.329 242.108 135.56 242.305L147.394 252.396C147.625 252.593 147.745 252.79 147.754 252.986C147.762 253.161 147.659 253.356 147.447 253.574L144.842 256.23C144.629 256.447 144.424 256.565 144.225 256.585C144.026 256.583 143.811 256.483 143.58 256.286L139.526 252.829L136.719 255.69L140.773 259.148C141.005 259.345 141.125 259.542 141.134 259.738C141.141 259.912 141.039 260.108 140.826 260.325Z" fill="#FFF9F9"/>
<path d="M158.094 240.716L150.983 249.286C150.789 249.52 150.596 249.654 150.402 249.686C150.207 249.696 149.989 249.608 149.749 249.422L137.459 239.892C137.219 239.706 137.089 239.524 137.069 239.347C137.047 239.148 137.134 238.932 137.328 238.698L144.438 230.127C144.632 229.893 144.827 229.771 145.023 229.761C145.216 229.729 145.432 229.805 145.673 229.992L147.892 231.712C148.132 231.899 148.263 232.091 148.285 232.29C148.304 232.467 148.217 232.673 148.023 232.907L143.793 238.005L145.254 239.137L148.242 235.535C148.436 235.301 148.631 235.179 148.826 235.169C149.019 235.137 149.236 235.214 149.476 235.4L151.506 236.973C151.746 237.16 151.877 237.352 151.899 237.551C151.918 237.728 151.831 237.934 151.637 238.168L148.649 241.77L150.28 243.034L154.509 237.937C154.703 237.703 154.898 237.58 155.094 237.57C155.287 237.538 155.503 237.615 155.744 237.801L157.963 239.522C158.203 239.708 158.334 239.901 158.356 240.1C158.375 240.277 158.288 240.482 158.094 240.716Z" fill="#FFF9F9"/>
<path d="M165.247 230.65L160.873 236.846C160.698 237.094 160.517 237.24 160.329 237.284C160.138 237.305 159.918 237.228 159.67 237.052L157.379 235.429C157.131 235.253 156.991 235.076 156.961 234.898C156.926 234.697 156.997 234.472 157.172 234.224L160.895 228.949C161.015 228.779 161.05 228.618 161.001 228.466C160.948 228.291 160.843 228.148 160.687 228.037C160.465 227.88 160.269 227.81 160.1 227.828C159.94 227.832 159.794 227.915 159.661 228.075L157.174 230.725C156.397 231.548 155.576 232.074 154.709 232.303C153.851 232.519 152.874 232.238 151.778 231.462L149.721 230.005C148.611 229.219 148.016 228.258 147.936 227.123C147.843 225.979 148.244 224.773 149.139 223.505L153.014 218.015C153.19 217.766 153.373 217.631 153.564 217.61C153.752 217.566 153.969 217.632 154.218 217.808L156.548 219.459C156.796 219.635 156.937 219.823 156.972 220.024C157.003 220.202 156.93 220.416 156.755 220.664L153.53 225.233C153.41 225.403 153.377 225.575 153.43 225.75C153.47 225.915 153.574 226.058 153.744 226.178C153.914 226.299 154.09 226.355 154.272 226.346C154.454 226.338 154.611 226.254 154.744 226.093L157.198 223.449C157.975 222.626 158.796 222.1 159.663 221.871C160.53 221.642 161.512 221.916 162.608 222.693L164.665 224.149C165.775 224.936 166.371 225.907 166.455 227.065C166.535 228.2 166.133 229.395 165.247 230.65Z" fill="#FFF9F9"/>
<path d="M170.051 223.307C169.895 223.568 169.727 223.725 169.545 223.779C169.359 223.811 169.138 223.744 168.883 223.579L166.484 222.028C166.229 221.863 166.081 221.691 166.039 221.512C165.992 221.31 166.046 221.078 166.202 220.817L167.421 218.778L160.649 214.399L159.431 216.438C159.275 216.699 159.106 216.857 158.925 216.911C158.738 216.943 158.517 216.876 158.262 216.711L155.823 215.134C155.568 214.969 155.42 214.797 155.378 214.617C155.331 214.415 155.385 214.184 155.541 213.923L160.785 205.146C160.941 204.886 161.112 204.739 161.299 204.708C161.48 204.653 161.699 204.709 161.954 204.874L164.392 206.451C164.648 206.616 164.799 206.799 164.846 207.001C164.888 207.181 164.831 207.401 164.675 207.662L163.481 209.66L170.252 214.039L171.446 212.041C171.602 211.78 171.773 211.633 171.96 211.602C172.141 211.548 172.36 211.603 172.615 211.768L175.013 213.319C175.268 213.484 175.42 213.668 175.467 213.869C175.508 214.049 175.451 214.269 175.295 214.53L170.051 223.307Z" fill="#FFF9F9"/>
<path d="M182.481 198.993L180.394 204.465C179.681 206.334 178.788 207.556 177.714 208.132C176.646 208.693 175.356 208.625 173.846 207.926L167.071 204.794C165.561 204.095 164.614 203.13 164.23 201.897C163.837 200.643 163.997 199.081 164.71 197.212L166.797 191.741C166.905 191.457 167.047 191.285 167.224 191.226C167.391 191.145 167.613 191.169 167.889 191.296L170.525 192.515C170.801 192.643 170.978 192.804 171.058 192.999C171.128 193.172 171.109 193.401 171.001 193.685L169.282 198.192C169.105 198.656 169.068 199.043 169.172 199.355C169.26 199.66 169.486 199.896 169.849 200.064L175.034 202.461C175.397 202.629 175.708 202.641 175.968 202.497C176.213 202.347 176.424 202.04 176.601 201.577L178.32 197.069C178.429 196.785 178.571 196.614 178.747 196.555C178.915 196.474 179.137 196.497 179.413 196.625L182.005 197.823C182.281 197.951 182.458 198.112 182.538 198.307C182.608 198.481 182.589 198.709 182.481 198.993Z" fill="#FFF9F9"/>
<path d="M183.193 177.933C183.888 178.176 184.497 178.507 185.019 178.925C185.53 179.323 185.924 179.866 186.203 180.553C186.47 181.22 186.604 182.068 186.605 183.096C186.61 184.11 186.44 185.34 186.097 186.788C185.753 188.236 185.355 189.395 184.903 190.265C184.451 191.136 183.964 191.775 183.442 192.182C182.909 192.569 182.337 192.773 181.726 192.796C181.104 192.798 180.446 192.677 179.751 192.434L172.026 189.733C171.331 189.49 170.728 189.17 170.217 188.772C169.695 188.354 169.293 187.809 169.011 187.137C168.732 186.449 168.592 185.591 168.591 184.562C168.59 183.534 168.761 182.295 169.105 180.847C169.449 179.4 169.845 178.248 170.293 177.394C170.745 176.523 171.238 175.895 171.771 175.508C172.308 175.106 172.888 174.904 173.51 174.902C174.12 174.879 174.773 174.989 175.468 175.232L183.193 177.933ZM180.194 186.848C180.496 186.954 180.78 186.927 181.047 186.767C181.299 186.603 181.525 186.1 181.724 185.259C181.924 184.419 181.953 183.847 181.812 183.545C181.656 183.238 181.427 183.031 181.125 182.925L175.031 180.795C174.744 180.695 174.474 180.727 174.223 180.892C173.956 181.051 173.722 181.551 173.523 182.392C173.323 183.233 173.302 183.807 173.458 184.114C173.599 184.416 173.812 184.617 174.099 184.718L180.194 186.848Z" fill="#FFF9F9"/>
</svg>
